<?xml version="1.0" standalone="no"?>
<!DOCTYPE svg PUBLIC "-//W3C//DTD SVG 1.1//EN" "http://www.w3.org/Graphics/SVG/1.1/DTD/svg11.dtd" >
<svg xmlns="http://www.w3.org/2000/svg">
<metadata></metadata>
<defs>
<font id="inhumanityregular" horiz-adv-x="450" >
<font-face units-per-em="2048" ascent="1638" descent="-410" />
<missing-glyph horiz-adv-x="409" />
<glyph horiz-adv-x="0" />
<glyph unicode="&#xd;" horiz-adv-x="1024" />
<glyph unicode=" "  horiz-adv-x="409" />
<glyph unicode="&#x09;" horiz-adv-x="409" />
<glyph unicode="&#xa0;" horiz-adv-x="409" />
<glyph unicode="!" horiz-adv-x="296" d="M23 1622l53 -129v-1223q4 8 11 27.5t13 43.5t11.5 43t5.5 28q6 25 14 71.5t15.5 97t12.5 90.5t5 48l65 774q4 6 10.5 21.5t12.5 32t11 31.5l7 21q0 4 2 13l2 10h-251zM76 0h123v164h-123v-164z" />
<glyph unicode="&#x22;" horiz-adv-x="370" d="M43 1458v162h123v-162q-6 -51 -24.5 -98t-41.5 -92q-20 47 -36.5 95t-20.5 95zM205 1458v162h123v-162q-6 -51 -24.5 -98t-41.5 -92q-20 47 -36.5 95t-20.5 95z" />
<glyph unicode="#" horiz-adv-x="636" d="M43 606h84v-801q4 8 11 28t13.5 43.5t11.5 43t5 27.5q6 23 14 71t15.5 98t12.5 90t5 48l16 352h152v-801q4 8 11 28t13.5 43.5t11.5 43t5 27.5q6 25 14 72t15.5 97t12.5 90t5 48l18 352h105v164h-96l6 117h90v164h-82l25 442q4 6 10 21.5t12 32t11 31.5t8 21q0 4 2 13 l2 10h-230l31 -129v-442h-127l25 442q4 6 8 21.5t8 32t7 31.5t5 21q0 4 2 13l2 10h-241l55 -129v-442h-84v-164h84v-117h-84v-164zM242 770l6 117h135v-117h-141z" />
<glyph unicode="$" horiz-adv-x="421" d="M43 1425q0 -66 1 -110.5t2 -72.5t2 -41t1 -17q4 -14 11.5 -44t14.5 -61.5t14 -59.5t9 -38q29 -98 63 -231.5t62.5 -273.5t47 -276.5t18.5 -242.5q0 -94 -14.5 -178t-36.5 -172q33 23 55 93.5t36.5 155.5t21.5 164.5t7 118.5q0 123 -22.5 277.5t-51 316.5t-55 316.5 t-36.5 275.5q0 12 -11 12q-6 6 -29.5 26.5t-31.5 27.5h217q12 20 21.5 47.5t17.5 58.5t13 59.5t9 51.5l2 14h-100v217h-162l2 -35q2 -8 7.5 -28.5t10.5 -42t10 -41t9 -25.5v-45h-59q-29 -35 -52.5 -87t-23.5 -110z" />
<glyph unicode="%" horiz-adv-x="671" d="M43 1167q0 -113 18.5 -195.5t55.5 -166.5l33 -55l32 55q35 84 55.5 168t20.5 194q0 98 -9 190.5t-34 184.5l-6 29h-115l-8 -29q-23 -92 -33 -184t-10 -191zM115 1137v34q0 23 1 43.5t5 51.5q0 8 2 24.5t5 36t6 35.5t5 24v19q0 10 -5 16t-13 13h57q-6 -6 -11 -12.5 t-5 -16.5v-19q4 -10 8 -35.5t8 -47.5v-25q0 -10 2 -12q4 -31 5 -51.5t1 -43.5v-34q0 -12 -1 -26.5t-1 -33.5q0 -16 -9 -69.5t-25 -106.5q-14 55 -23.5 107.5t-9.5 68.5q0 18 -1 32.5t-1 27.5zM135 0h129l230 1446l36 141l5 35h-146zM412 471q0 -113 19.5 -197t55.5 -165 l33 -56l33 56q35 84 55.5 167.5t20.5 194.5q0 98 -10.5 190.5t-34.5 184.5l-6 28h-115l-8 -28q-23 -92 -33 -184.5t-10 -190.5zM485 440v35q0 23 1 43.5t6 50.5q0 8 1 24.5t4 36t6 36t7 24.5v19q0 10 -6 16l-12 12h57q-8 -6 -13.5 -12t-5.5 -16v-19q4 -10 8.5 -35.5 t8.5 -50.5q0 -12 1 -22.5t3 -12.5q4 -31 5 -51t1 -43v-35q0 -12 -1 -26.5t-1 -32.5q0 -16 -11.5 -69.5t-23.5 -106.5q-16 55 -24.5 107.5t-8.5 68.5q0 18 -1 32.5t-1 26.5z" />
<glyph unicode="&#x26;" horiz-adv-x="579" d="M43 817q0 -113 11.5 -210t31.5 -186t50 -171t67 -164l55 -86l55 86q70 150 112 307.5t50 354.5h62v163h-379q2 29 4 55.5t6 63.5l7 49t11.5 74t13.5 75t13 50v29q0 14 -10 25t-24.5 20.5t-29 17.5t-22.5 21h246q0 53 -9.5 114.5t-23.5 116.5h-188l-13 -37 q-53 -193 -74.5 -381t-21.5 -387zM158 727v21h202v-111q0 -23 -8 -74t-22.5 -113.5t-32.5 -132t-39 -129.5q-47 180 -73.5 306.5t-26.5 232.5z" />
<glyph unicode="'" horiz-adv-x="208" d="M43 1458v162h123v-162q-6 -51 -24.5 -98t-41.5 -92q-20 47 -36.5 95t-20.5 95z" />
<glyph unicode="(" horiz-adv-x="436" d="M43 717l10 100q14 137 53 251t97 235l207 319q-18 -49 -44 -119.5t-53.5 -152.5t-55.5 -167t-49.5 -160t-34.5 -135.5t-13 -90.5v-19q-2 -16 -3 -28.5t-1 -24.5v-43q0 -10 1 -21.5t3 -23.5q0 -33 13 -92.5t34.5 -135t49.5 -160.5t55.5 -166t53 -152.5t44.5 -120.5 l-207 319q-53 121 -96.5 234.5t-53.5 248.5z" />
<glyph unicode=")" horiz-adv-x="436" d="M27 -190l206 319q53 121 96.5 234.5t53.5 248.5l10 105l-10 100q-12 137 -54 251t-96 235l-206 319q18 -49 43.5 -119.5t53.5 -152.5t55.5 -167t49 -160t34.5 -135.5t13 -90.5l5 -115q0 -10 -1 -21.5t-4 -23.5q0 -33 -13 -92.5t-34.5 -135t-49 -160.5t-55.5 -166 t-53.5 -152.5t-43.5 -120.5z" />
<glyph unicode="*" horiz-adv-x="274" d="M27 1542l10 74q23 -10 40 -23.5t29 -27.5l-4 112h66l-6 -116l10 10q10 12 23.5 25.5t23.5 19.5l29 -74q-12 -8 -25.5 -11t-29.5 -7l-17 -4l-8 -4l6 -7q8 -12 22.5 -33.5t28.5 -50.5l-47 -53q-10 18 -22.5 45t-20.5 56q-14 -61 -41 -101l-45 53q16 35 29.5 56.5t23.5 36.5 l-4 1l-12 3q-43 6 -59 20z" />
<glyph unicode="+" horiz-adv-x="411" d="M43 748h80v-150h164v150h82v163h-82v138h-164v-138h-80v-163z" />
<glyph unicode="," horiz-adv-x="219" d="M47 -190q12 37 24.5 85t24.5 105h-47v164h123v-164h-2z" />
<glyph unicode="-" horiz-adv-x="284" d="M47 748h191v163h-191v-163z" />
<glyph unicode="." horiz-adv-x="217" d="M47 0h123v164h-123v-164z" />
<glyph unicode="/" horiz-adv-x="456" d="M27 0h131l229 1446l37 141l4 35h-145z" />
<glyph unicode="0" horiz-adv-x="528" d="M47 817q0 -113 11.5 -210t32 -186t50 -171t66.5 -164l53 -86l57 86q74 160 119 335t45 396q0 199 -22.5 387.5t-75.5 380.5l-10 37h-217l-13 -37q-53 -193 -74.5 -381t-21.5 -387zM131 1391h266q-8 -12 -22.5 -20.5t-28.5 -18t-24.5 -20.5t-10.5 -25v-29q6 -16 12.5 -52 t12.5 -75t11 -73t9 -48q6 -66 8.5 -109.5t2.5 -95.5q0 -37 -1 -82t-4 -106q0 -47 -29.5 -144.5t-70.5 -220.5q-39 123 -67.5 220.5t-28.5 144.5q-2 61 -3 106t-1 82q0 51 2 95.5t8 109.5l7 49t11.5 74t13.5 75t13 50v29q0 14 -10 25t-24.5 20.5t-29 17.5t-22.5 21zM205 748 h121v163h-121v-163z" />
<glyph unicode="1" horiz-adv-x="356" d="M23 1622h237q18 -12 33.5 -78.5t15.5 -148.5h-2l-61 -1336q0 -10 -5 -51t-12.5 -90t-15.5 -96t-14 -72q0 -8 -5.5 -27.5t-11.5 -43t-13 -43t-11 -27.5v1784h-64q-12 23 -24.5 53.5t-21.5 62t-16 61t-9 52.5z" />
<glyph unicode="2" horiz-adv-x="425" d="M23 1608v14h280q29 -35 52.5 -87t23.5 -110v-147q0 -23 -2 -53.5t-4 -40.5q-4 -14 -11.5 -44t-14.5 -61.5t-13 -59.5t-8 -38q-29 -98 -63 -196.5t-62.5 -197t-48 -198.5t-19.5 -207q0 -92 13.5 -177t35.5 -173q-31 23 -53.5 93.5t-36.5 155.5t-21.5 165t-7.5 121 q0 123 23 241.5t51.5 237.5t55 237.5t36.5 241.5q0 12 11 12q8 6 31.5 26.5t29.5 27.5h-217q-23 43 -38 107.5t-23 109.5z" />
<glyph unicode="3" horiz-adv-x="507" d="M23 1608v14h294l13 -37q53 -168 71.5 -336t22.5 -348h37v-133h-35q-4 -102 -16.5 -185t-33 -158t-49 -146.5t-63.5 -149.5l-205 -319q16 49 41 120.5t52.5 152.5t55.5 166t50.5 160.5t35.5 136t13 91.5v4q2 16 3 29.5t1 23.5v54h-164v163h162q0 29 -2 55.5t-6 63.5l-7 49 t-11.5 74l-12.5 75t-12 50v25q0 16 10.5 27t23.5 20.5t27.5 18.5t22.5 22h-258q-10 18 -20.5 46.5t-18.5 59.5t-14 60.5t-8 50.5z" />
<glyph unicode="4" horiz-adv-x="495" d="M18 1622l5 -35q2 -8 7 -28.5t10 -44t10 -43t9 -25.5v-545h-26v-153h270v-748h117v1446q4 8 12 31.5t17.5 50t16.5 50.5t9 34v10h-172v-711h-121v711h-164z" />
<glyph unicode="5" horiz-adv-x="481" d="M23 1622l2 -35q2 -6 8 -25.5t13 -42t12 -41t5 -22.5v-117q0 -29 3 -30l53 -203q25 -100 57.5 -197.5t63 -196t51 -199t20.5 -206.5q0 -94 -14 -178t-37 -172q33 23 55.5 93.5t37 155.5t21.5 164t7 119q0 123 -22.5 223.5t-52.5 196t-56.5 194.5t-34.5 222q0 12 -10 12 l-64 54h246l5 12t7 16q6 20 16.5 50t19.5 58.5t17 48.5l7 21v25h-436z" />
<glyph unicode="6" d="M47 817q0 199 21.5 387.5t74.5 380.5l13 37h247l-2 -14q-4 -23 -10 -52.5t-13 -60.5t-17.5 -59.5t-20.5 -49.5h-209q8 -12 22.5 -20t29 -17.5t24.5 -20.5t10 -25v-25q-10 -35 -17 -68.5t-12 -66.5l121 -187q35 -78 53.5 -144.5t27.5 -135t11 -145.5t2 -175 q-12 -92 -24 -175t-41 -181h-152l-11 20q-11 21 -24.5 48.5t-26.5 58.5t-20 49q-39 160 -48 317.5t-9 323.5zM156 872q2 -55 6 -126.5t12 -150.5t20.5 -160t30.5 -150q2 -10 10.5 -27.5t14.5 -28t6 -12.5l27 -2l14 272v23q0 98 -18.5 190.5t-41 163t-42 111.5t-21.5 35 q-10 -35 -12 -69t-6 -69z" />
<glyph unicode="7" d="M23 1597v25h405l-4 -35q-2 -6 -8 -25.5t-12.5 -42t-11.5 -41t-5 -22.5q-2 -2 -2 -31v-82q43 -264 43 -526q0 -111 -11 -202t-33 -172t-51.5 -156.5t-66.5 -157.5l-205 -319q16 49 41 120.5t52.5 152.5t55.5 166t50.5 160.5t35.5 136t13 91.5q2 18 3 33.5t1 31.5v123 q0 51 -2 95t-8 110l-7 49t-11 74t-13.5 75t-13.5 50l-12 59q8 6 30.5 26.5t30.5 27.5h-213l-5 12t-7 16q-6 20 -16.5 50t-19.5 58.5t-16 48.5z" />
<glyph unicode="8" horiz-adv-x="528" d="M47 817q0 199 21.5 387.5t74.5 380.5l13 37h217l10 -37q53 -193 75.5 -381t22.5 -387q0 -221 -45 -396t-119 -335l-57 -86l-53 86q-37 82 -66.5 164t-50 171t-32 186.5t-11.5 209.5zM131 1391q8 -12 22.5 -20.5t29 -18t24.5 -20.5t10 -25v-29q-6 -14 -13 -50t-13.5 -75 t-11.5 -74l-7 -49q-4 -37 -6 -63.5t-4 -55.5h203q0 29 -2.5 55.5t-6.5 63.5q-4 14 -9 48t-11 73t-12.5 75t-12.5 52v29q0 14 10.5 25t24.5 20.5t28.5 17.5t22.5 21h-266zM162 727q0 -106 26.5 -232t73.5 -307q20 59 38.5 129t33 132.5t23 113.5t8.5 74v111h-203v-21z" />
<glyph unicode="9" horiz-adv-x="458" d="M47 1217q4 88 24.5 164.5t43.5 154.5q8 23 10 32t6 17l10 37h297q-10 -41 -15 -92t-28 -98v-1432h-116v373l-95 153q-37 82 -62.5 158t-43 157t-24.5 172t-7 204zM117 1389q16 -23 41.5 -39.5t25.5 -46.5v-25q-6 -16 -9 -52t-6 -75t-5 -73t-6 -48v-88q0 -78 36.5 -184.5 t84.5 -212.5v831q0 2 -10.5 5t-26 4t-31.5 2.5t-29 1.5h-65z" />
<glyph unicode=":" horiz-adv-x="219" d="M47 0h123v164h-123v-164zM49 909h123v162h-123v-162z" />
<glyph unicode=";" horiz-adv-x="221" d="M47 -190q12 37 24.5 85t24.5 105h-47v164h123v-164h-2zM51 909v162h123v-162h-123z" />
<glyph unicode="&#x3c;" horiz-adv-x="348" d="M27 860l163 -860h132l-158 860l117 586l36 141l5 35h-146z" />
<glyph unicode="=" horiz-adv-x="378" d="M43 637h293v162h-293v-162zM43 858h293v164h-293v-164z" />
<glyph unicode="&#x3e;" horiz-adv-x="348" d="M27 0l157 860l-116 586l-37 141l-4 35h147l148 -762l-164 -860h-131z" />
<glyph unicode="?" horiz-adv-x="425" d="M23 1608q8 -45 23 -109.5t38 -107.5h217q-6 -6 -29.5 -27t-31.5 -27q-10 0 -11 -12q-10 -123 -30.5 -233.5t-42 -220t-40 -221t-24.5 -234.5v-6q0 -23 10.5 -60t23.5 -70.5t23.5 -57t10.5 -17.5q4 137 27.5 268t52 237.5t54 179.5t32.5 91q2 10 8 38t13 59.5t14.5 61 t11.5 44.5q2 10 4 40.5t2 53.5v147q0 57 -23.5 109.5t-52.5 87.5h-280v-14zM90 0h123v164h-123v-164z" />
<glyph unicode="@" horiz-adv-x="712" d="M43 817q0 -111 11.5 -202t33 -172t51 -156.5t66.5 -157.5l207 -319q-18 49 -44 120.5t-53.5 152.5t-55.5 166t-49.5 160.5t-34.5 136t-13 91.5q-2 18 -3 33.5t-1 31.5v123q0 51 2 95.5t8 109.5l7 49t11.5 74t13.5 75t13 50v25q0 16 -10 27t-24.5 20.5t-29 18.5t-22.5 22 h184q2 -2 3 -6.5t5 -8.5q14 -16 48 -79.5t71 -149.5t65.5 -180.5t31.5 -169.5q2 -4 2 -21v-16v-31v-43q0 -47 -2 -49l-43 -508q55 121 97 234.5t54 248.5l8 105l-8 100q-14 137 -55 251t-96 235l-80 153q10 35 18 75t14 68l5 23h-297l-13 -37q-53 -193 -74.5 -381 t-21.5 -387zM221 764q0 -117 20.5 -200t61.5 -167l37 -59l37 59q39 86 61.5 171t22.5 196q0 182 -53 383l-9 27h-120l-11 -27q-25 -92 -36 -188.5t-11 -194.5zM309 678v115q0 14 2 29.5t4 37.5q0 8 1 24.5t3.5 35t4.5 35t4 24.5v18q0 12 -3 18.5t-10 10.5h54q-6 -4 -9.5 -10 t-3.5 -19v-18q4 -10 6.5 -34.5t4.5 -47.5q0 -14 1 -24.5t5 -12.5q2 -29 3 -49t1 -43v-90q-2 -16 -11.5 -68.5t-25.5 -105.5q-12 53 -21.5 105.5t-9.5 68.5z" />
<glyph unicode="A" horiz-adv-x="475" d="M47 1622q10 -41 33.5 -87t23.5 -87v-16q-8 -49 -17 -108.5t-16.5 -116t-11.5 -102.5t-4 -69q-2 -47 -4 -109.5t-2 -127.5q0 -53 2 -104.5t6 -102.5q4 -82 14.5 -189.5t25 -217t31.5 -209t36 -166.5l20 -35q-2 160 -4 313.5t-2 312.5q0 88 1 172t5 172h107v-745h117v768 h30v133h-30v721h-361zM168 1391h123v-482h-121q0 100 16 212t39 212q-16 16 -36.5 24.5t-20.5 33.5z" />
<glyph unicode="B" horiz-adv-x="471" d="M23 1622h294l33 -109q23 -72 40.5 -143t21.5 -153q0 -72 -2 -111t-8.5 -65.5t-15.5 -48t-24 -56.5l62 -33q0 -84 -7 -178t-20.5 -189.5t-32 -187.5t-38.5 -172q-6 -25 -25.5 -69t-35 -73.5t-17.5 -33.5h-185v1432q-23 47 -29.5 99t-10.5 91zM180 215l33 2q0 2 6 12.5 t13.5 27.5t9.5 28q12 45 22 105.5t18.5 128t14.5 138t10 134.5l-33 -52l-94 -145v-379zM180 715q25 51 46.5 107.5t39 109.5t26.5 102t9 86v35q-6 29 -10 60.5t-17 62.5v25q0 14 7.5 25t18.5 20.5t22.5 18.5t19.5 22h-66q-12 0 -28.5 -1.5t-31.5 -2.5t-25.5 -4t-10.5 -5 v-661z" />
<glyph unicode="C" horiz-adv-x="471" d="M43 1622l4 -35q2 -6 8 -25.5t12.5 -42t11.5 -41t5 -22.5q2 -2 2 -31l14 -6q-29 -150 -42 -299t-13 -303q0 -111 11.5 -202t33 -172t51 -156.5t66.5 -157.5l205 -319q-18 47 -44 117.5t-53.5 152.5t-54.5 168t-48.5 161.5t-34.5 136t-13 91.5q-2 18 -3 33.5t-1 31.5v123 q0 51 2 95.5t8 109.5l7 49t11.5 74t13.5 75t13 50v25q0 16 -10 27t-24.5 20.5t-29 18.5t-22.5 22h35h213l5 12t7 16q8 20 18.5 50t19.5 58.5t17 48.5l7 21v25h-408z" />
<glyph unicode="D" horiz-adv-x="473" d="M23 1608q6 -47 14 -91t26 -85v-1432h121v4l86 125q37 82 66 156.5t49.5 154.5t30.5 171t10 206q0 199 -17.5 390.5t-78.5 377.5l-13 37h-294v-14zM180 203v1177q0 6 44 9.5t118 3.5q-8 -12 -22.5 -20.5t-27.5 -17.5t-23.5 -20.5t-10.5 -25.5v-31q6 -16 12 -52t11.5 -75 t10.5 -73t9 -48q4 -43 6 -76.5t2 -85.5v-184q0 -59 -12 -122.5t-31.5 -126t-42 -122t-43.5 -110.5z" />
<glyph unicode="E" horiz-adv-x="407" d="M20 1622q4 -37 18.5 -90t27.5 -86v-545h-29v-133h29v-768h301v164h-179v584h121v163h-121v480h103q31 59 46 107t25 95q0 2 1.5 6.5t1.5 22.5h-345z" />
<glyph unicode="F" horiz-adv-x="454" d="M23 1622l6 -35q2 -6 8 -25.5t12 -42t11.5 -41t5.5 -22.5q2 -2 3 -15.5t7 -64.5l22 -475h-35v-133h39l35 -709q0 -10 5 -51t11.5 -90t14.5 -96t14 -72q0 -6 5.5 -26.5t11.5 -44t13 -44t11 -26.5v1139h125v163h-125v408l-65 72h202q2 2 10.5 20.5t17.5 40t9 25.5 q16 41 25.5 84t9.5 61h-409z" />
<glyph unicode="G" horiz-adv-x="456" d="M47 817q0 199 24.5 387.5t78.5 380.5l12 37h248l-2 -14q-8 -45 -23.5 -109.5t-38.5 -107.5h-209q8 -12 21.5 -21.5t28 -20t24.5 -23t10 -26.5v-24q-25 -104 -36 -201.5t-23 -202.5q2 -55 5 -127.5t11 -151.5t20.5 -159t32.5 -149q4 -16 13.5 -39t13.5 -29 q10 70 19.5 132.5t15.5 119.5v518h117v-172q0 -248 -26 -444.5t-89 -370.5q-20 -55 -54 -101t-69 -89q2 25 7 54.5t9.5 57t8.5 48t4 28.5v2q-4 0 -16.5 20.5t-27 48t-27.5 58.5t-19 49q-39 160 -51.5 317.5t-12.5 323.5z" />
<glyph unicode="H" horiz-adv-x="491" d="M29 1622l4 -35q2 -8 7 -28.5t10 -44t10.5 -43t9.5 -25.5v-545h-27v-133h33v-768h117v748h106v-748h117v1446q4 8 12 31.5t17.5 50t16.5 50.5t9 34v10h-172v-711h-106v711h-164z" />
<glyph unicode="I" horiz-adv-x="296" d="M23 1614q0 -8 2 -14.5t6 -22.5q10 -20 19.5 -47t15.5 -37l67 -1434q0 -10 5 -51t11.5 -90t14.5 -96t14 -72q0 -6 5 -26.5t11.5 -44t13.5 -44t11 -26.5v1884l55 129h-251v-8z" />
<glyph unicode="J" horiz-adv-x="432" d="M18 -190q18 47 44 117.5t53.5 152.5t54.5 168t48.5 161.5t34.5 136t13 91.5v260q0 29 -1 59.5t-5 73.5l-7 49t-11 74t-13.5 75t-13.5 50v25q0 16 10.5 27t24.5 20.5t28.5 18.5t22.5 22h-213q-23 43 -38 107.5t-23 109.5l-2 14h251l13 -37q61 -186 78.5 -377.5 t17.5 -390.5q0 -111 -11.5 -202t-33 -172t-51 -156.5t-66.5 -157.5z" />
<glyph unicode="K" horiz-adv-x="471" d="M23 1622l2 -35q2 -8 7 -28.5t11 -44t11 -43t9 -25.5v-545h-28v-133h33v-768h116v748h11l49 -236l69 -512h131l-131 860l90 586l37 141l4 35h-147l-113 -686v686h-161z" />
<glyph unicode="L" horiz-adv-x="409" d="M23 1622l2 -35q2 -8 7 -28.5t11 -44t11 -43t9 -25.5v-1446h299v164h-178v1458h-161z" />
<glyph unicode="M" horiz-adv-x="712" d="M23 1610q2 -10 9 -37t15 -56.5t15.5 -55t11.5 -34.5v-1427h114v1380l19 11q2 -6 7 -20.5t9 -30t8.5 -29l6.5 -19.5q4 -18 10 -53t12 -70.5t11 -64.5t5 -35l82 -1173h7l88 1206q0 2 7 39t16 84t19.5 94t16.5 72h6q6 0 9 -4.5t3 -6.5v-1380h117v1448q2 8 7 27.5t11.5 42 t12.5 47t10 45.5q0 2 1 7l1 5h-233l-4 -14q-4 -13 -9 -23q-4 -12 -9 -36.5t-10 -50t-9 -45t-6 -21.5l-45 -275h-7q-4 63 -12 119.5t-20.5 109t-26.5 104.5t-29 109l-6 23h-241v-12z" />
<glyph unicode="N" horiz-adv-x="473" d="M23 1604q6 -43 12 -87t28 -85v-1432h117v1378q0 6 44 9.5t118 3.5q-8 -12 -22.5 -21.5t-27.5 -19t-23.5 -20.5t-10.5 -27v-25q6 -16 12 -52t11.5 -75t10.5 -73t9 -48q12 -293 12 -584q0 -315 -12 -636l16 12q2 0 5.5 13t6.5 31.5t6 39t7 33.5q35 223 59.5 439t24.5 439 q0 199 -21.5 387.5t-74.5 380.5l-13 37h-294v-18z" />
<glyph unicode="O" horiz-adv-x="524" d="M47 817q0 -225 41 -396t117 -335l53 -86l57 86q37 82 67 164t51.5 171t32.5 187.5t11 208.5q0 199 -22.5 387.5t-75.5 380.5l-10 37h-213l-13 -37q-61 -186 -78.5 -377.5t-17.5 -390.5zM131 1391h262q-8 -12 -22.5 -20.5t-28.5 -18t-24.5 -20.5t-10.5 -25v-29 q6 -16 12.5 -52t11.5 -75t10 -73t9 -48q6 -66 8 -109.5t2 -95.5q0 -37 -1 -82t-3 -106q0 -47 -27.5 -141.5t-68.5 -216.5q-39 123 -65.5 217t-26.5 141q-2 61 -3 106t-1 82q0 51 2 95.5t8 109.5q2 14 6 49t10.5 74l12.5 75t12 50v29q0 14 -10 24t-24.5 19.5t-28 18.5 t-21.5 22z" />
<glyph unicode="P" horiz-adv-x="458" d="M23 1622q4 -41 11 -92t29 -98l3 -889l28 -484q0 -10 5 -51t11.5 -90t14.5 -96t14 -72q0 -6 5.5 -26.5t11.5 -44t13 -44t11 -26.5v766l94 151q37 82 62.5 158t43 157t25 172t7.5 204q0 88 -22.5 164.5t-45.5 154.5l-31 86h-290zM180 565v811q0 6 44 9.5t118 3.5 q-8 -12 -20.5 -21.5t-23.5 -19t-19.5 -20.5t-8.5 -25v-25q6 -16 11.5 -51t8.5 -74t6 -74t5 -49v-72q0 -78 -37 -182t-84 -211z" />
<glyph unicode="Q" horiz-adv-x="530" d="M47 817q0 -111 9.5 -201t26.5 -170.5t42 -157.5t53 -159q41 -76 94.5 -157t114.5 -162q-8 23 -18.5 54.5t-21.5 66t-21.5 70.5t-18.5 67l12 18q74 160 119 335t45 396q0 199 -22.5 387.5t-75.5 380.5l-12 37h-215l-13 -37q-41 -154 -63.5 -306.5t-30.5 -311.5 q-2 -37 -3 -73t-1 -77zM133 1391h266q-8 -12 -22.5 -20.5t-28.5 -18t-24.5 -20.5t-10.5 -25v-29q6 -16 12.5 -52t12.5 -75t11 -73t9 -48q6 -66 8.5 -109.5t2.5 -95.5v-67l-162 250q18 -49 39.5 -105.5t41 -113t38 -111.5t30.5 -105q-4 -37 -14 -79.5t-23.5 -84.5t-28 -78 t-26.5 -59q-39 123 -67.5 220.5t-28.5 144.5q-2 61 -3 106t-1 82q0 51 2 95.5t8 109.5l7 49t11.5 74t13.5 75t13 50v29q0 14 -10 25t-24.5 20.5t-29 17.5t-22.5 21z" />
<glyph unicode="R" horiz-adv-x="458" d="M23 1622q10 -51 17 -97t23 -93v-1432h117v356q6 39 7 69t3.5 54.5t8.5 46t22 41.5q25 55 45.5 93t38.5 81l23 -196v-53q0 -10 -1 -23.5t-3 -30.5v-4q0 -35 -13.5 -129t-41 -214t-70.5 -249t-105 -235q168 205 252 434t84 514v10l-22 314l-60 -2q37 111 50.5 188.5 t13.5 151.5q0 88 -21.5 164.5t-44.5 154.5q-8 23 -12 37t-19 49h-292zM180 686v690q0 2 10.5 5t25.5 4t31.5 2.5t28.5 1.5h66q-8 -12 -19.5 -21.5t-22.5 -19t-18.5 -20.5t-7.5 -25v-25q12 -27 17.5 -54t9.5 -50v-54q0 -37 -9 -90t-26.5 -111.5t-39 -119t-46.5 -113.5z" />
<glyph unicode="S" d="M23 1622l2 -35q2 -6 8 -25.5t13 -42t12 -41t5 -22.5v-178q0 -23 2.5 -53.5t4.5 -40.5q2 -14 9 -44t15 -61.5t15.5 -59.5t9.5 -38q29 -98 62.5 -196.5t62 -197t48 -199t19.5 -206.5q0 -92 -14 -177t-37 -173q33 23 55.5 93.5t37 155.5t21.5 165t7 121q0 123 -22.5 241.5 t-52.5 236.5t-56.5 236.5t-34.5 241.5q0 12 -10 12l-64 56h215l6 12q5 12 7 16q6 20 16 50l19.5 58.5t16.5 48.5l7 21v25h-405z" />
<glyph unicode="T" horiz-adv-x="454" d="M23 1622q0 -25 6 -62.5t15 -74.5t19.5 -63.5t20.5 -26.5h61h2l60 -1336q0 -10 5 -51t12 -90t15.5 -96t14.5 -72q0 -6 5 -26.5t11 -44t12.5 -44t9.5 -26.5v1784h68q12 23 24.5 53.5t22 62t16.5 61t9 52.5h-409z" />
<glyph unicode="U" d="M47 834q0 -172 9.5 -332t47.5 -326q6 -18 19.5 -49t28 -58.5t25.5 -48.5l11 -20h215v1622h-116v-1411l-31 2q0 2 -6 13.5t-14.5 29.5t-10.5 29q-10 31 -18 67.5t-14.5 75.5t-10.5 76t-4 65q-6 125 -10 242t-4 256v199l14 452q-2 -4 -9 -16t-15.5 -25.5t-15.5 -25 t-9 -17.5q-41 -205 -61.5 -397t-20.5 -403z" />
<glyph unicode="V" horiz-adv-x="448" d="M47 834q0 211 20.5 403.5t61.5 396.5q2 6 9 17.5t15.5 25t15.5 25.5t9 16l-14 -452v-199q0 -139 4 -256t10 -242q0 -57 13.5 -137t31.5 -141q8 31 16.5 67.5t15.5 73.5t11 73t4 64q6 125 10.5 242t4.5 256v199l-15 452q2 -4 9.5 -16t15.5 -25.5t15 -25t9 -17.5 q41 -205 61.5 -397t20.5 -403q0 -174 -9 -333t-50 -325q-6 -18 -19.5 -50t-30 -65.5t-33.5 -68.5t-32 -60q-41 63 -66.5 123t-56.5 121q-39 166 -48 326t-9 332z" />
<glyph unicode="W" horiz-adv-x="657" d="M47 834q0 -172 9.5 -332t47.5 -326q6 -18 20.5 -49t30 -58.5t27.5 -48.5l11 -20h417l-2 4v1618h-116v-1415l-35 4q0 2 -6.5 14.5t-13.5 30.5t-9 29q-10 31 -19.5 67.5t-15.5 75.5t-10 76t-4 65q-4 125 -8 242t-4 256v199l12 452q-2 -4 -10.5 -15t-16.5 -25.5t-14 -27 t-6 -16.5q-41 -205 -61.5 -397t-20.5 -403q0 -160 7 -317t40 -310l-37 4l-5 9t-11 20.5t-11.5 23.5t-7.5 21q-10 31 -18 67.5t-14.5 75.5t-10.5 76t-4 65q-6 125 -10 242t-4 256v199l14 452q-2 -4 -9 -16t-15.5 -25.5t-15.5 -25t-9 -17.5q-41 -205 -61.5 -397.5 t-20.5 -402.5z" />
<glyph unicode="X" horiz-adv-x="456" d="M27 0h131l69 512l70 -512h131l-131 860l90 586l37 141l4 35h-145l-56 -358l-53 358h-147l4 -35q2 -8 7 -28.5t10 -44t10 -43t10 -25.5l88 -586z" />
<glyph unicode="Y" horiz-adv-x="456" d="M27 1622h147l53 -358l56 358h145l-4 -35l-37 -141l-92 -592l-43 -795q0 -10 -5 -51t-12.5 -90t-15.5 -96t-14 -72q0 -8 -5 -27.5t-11.5 -43t-13.5 -43t-11 -27.5v1222l-96 615q-4 6 -9.5 25.5t-10.5 43t-10 44t-7 28.5z" />
<glyph unicode="Z" d="M23 1597v25h405l-4 -35q-2 -6 -8 -25.5t-12.5 -42t-11.5 -41t-5 -22.5q-2 -2 -2 -31v-147q0 -23 -2 -53.5t-4 -40.5q-4 -14 -11.5 -44t-14.5 -61.5t-13 -59.5t-8 -38q-29 -98 -62.5 -196.5t-62.5 -197t-48.5 -199t-19.5 -206.5q0 -92 13.5 -177t35.5 -173q-23 12 -40 49 t-30.5 88t-22.5 110.5t-15 115t-9 101.5t-3 71q0 123 22.5 241.5t51 236.5t56 236.5t38.5 241.5q0 12 10 12l61 56h-213l-5 12t-7 16q-6 20 -16.5 50t-19.5 58.5t-16 48.5z" />
<glyph unicode="[" horiz-adv-x="372" d="M43 1622q2 -18 7 -40.5t11.5 -47.5t13.5 -48.5t13 -39.5v-1446h242v164h-119v1227h45q29 59 42 107t28 95q0 2 1 6.5t1 22.5h-285z" />
<glyph unicode="\" horiz-adv-x="456" d="M27 1622l4 -35q2 -8 7 -28.5t10 -44t10 -43t10 -25.5l229 -1446h131l-254 1622h-147z" />
<glyph unicode="]" horiz-adv-x="372" d="M41 0v164h119v1227h-45q-31 59 -43.5 107t-26.5 95q0 2 -1 6.5t-1 22.5h285q-4 -18 -9.5 -40.5t-11.5 -47.5t-12 -48.5t-12 -39.5v-1446h-242z" />
<glyph unicode="^" horiz-adv-x="440" d="M43 694q0 172 9 331t48 325q6 18 19.5 50t31 67.5t35 69.5t31.5 58q41 -63 65.5 -122.5t55.5 -122.5q41 -166 50 -325t9 -331q0 -211 -20.5 -403.5t-61.5 -396.5q-2 -6 -9 -17.5t-15 -25t-15.5 -25.5t-9.5 -16l15 450v201q0 139 -4.5 256t-10.5 239q0 57 -13 137.5 t-34 143.5q-16 -63 -30.5 -143t-14.5 -138q-6 -123 -10 -239.5t-4 -255.5v-201l14 -450q-2 4 -9 16t-15.5 25.5t-15.5 24.5t-9 18q-41 205 -61.5 397t-20.5 403z" />
<glyph unicode="_" horiz-adv-x="385" d="M43 0h299v164h-299v-164z" />
<glyph unicode="`" horiz-adv-x="202" d="M27 1620l57 -131h92l-47 131h-102z" />
<glyph unicode="a" horiz-adv-x="475" d="M47 1622q10 -41 33.5 -87t23.5 -87v-16q-8 -49 -17 -108.5t-16.5 -116t-11.5 -102.5t-4 -69q-2 -47 -4 -109.5t-2 -127.5q0 -53 2 -104.5t6 -102.5q4 -82 14.5 -189.5t25 -217t31.5 -209t36 -166.5l20 -35q-2 160 -4 313.5t-2 312.5q0 88 1 172t5 172h107v-745h117v768 h30v133h-30v721h-361zM168 1391h123v-482h-121q0 100 16 212t39 212q-16 16 -36.5 24.5t-20.5 33.5z" />
<glyph unicode="b" horiz-adv-x="471" d="M23 1622h294l33 -109q23 -72 40.5 -143t21.5 -153q0 -72 -2 -111t-8.5 -65.5t-15.5 -48t-24 -56.5l62 -33q0 -84 -7 -178t-20.5 -189.5t-32 -187.5t-38.5 -172q-6 -25 -25.5 -69t-35 -73.5t-17.5 -33.5h-185v1432q-23 47 -29.5 99t-10.5 91zM180 215l33 2q0 2 6 12.5 t13.5 27.5t9.5 28q12 45 22 105.5t18.5 128t14.5 138t10 134.5l-33 -52l-94 -145v-379zM180 715q25 51 46.5 107.5t39 109.5t26.5 102t9 86v35q-6 29 -10 60.5t-17 62.5v25q0 14 7.5 25t18.5 20.5t22.5 18.5t19.5 22h-66q-12 0 -28.5 -1.5t-31.5 -2.5t-25.5 -4t-10.5 -5 v-661z" />
<glyph unicode="c" horiz-adv-x="473" d="M47 817q0 -111 11.5 -202t33 -172t51 -156.5t66.5 -157.5l205 -319q-18 47 -44 117.5t-53.5 152.5t-54 168t-48 161.5t-35 136t-13.5 91.5v260q0 29 1 59.5t5 73.5l7 49t11.5 74t13.5 75t13 50v25q0 16 -10 27t-24.5 20.5t-29 18.5t-22.5 22h258q23 43 38 107.5t24 109.5 l2 14h-297l-13 -37q-61 -186 -78.5 -377.5t-17.5 -390.5z" />
<glyph unicode="d" horiz-adv-x="473" d="M23 1608q6 -47 14 -91t26 -85v-1432h121v4l86 125q37 82 66 156.5t49.5 154.5t30.5 171t10 206q0 199 -17.5 390.5t-78.5 377.5l-13 37h-294v-14zM180 203v1177q0 6 44 9.5t118 3.5q-8 -12 -22.5 -20.5t-27.5 -17.5t-23.5 -20.5t-10.5 -25.5v-31q6 -16 12 -52t11.5 -75 t10.5 -73t9 -48q4 -43 6 -76.5t2 -85.5v-184q0 -59 -12 -122.5t-31.5 -126t-42 -122t-43.5 -110.5z" />
<glyph unicode="e" horiz-adv-x="407" d="M20 1622q4 -37 18.5 -90t27.5 -86v-545h-29v-133h29v-768h301v164h-179v584h121v163h-121v480h103q31 59 46 107t25 95q0 2 1.5 6.5t1.5 22.5h-345z" />
<glyph unicode="f" horiz-adv-x="454" d="M23 1622l6 -35q2 -6 8 -25.5t12 -42t11.5 -41t5.5 -22.5q2 -2 3 -15.5t7 -64.5l22 -475h-35v-133h39l35 -709q0 -10 5 -51t11.5 -90t14.5 -96t14 -72q0 -6 5.5 -26.5t11.5 -44t13 -44t11 -26.5v1139h125v163h-125v408l-65 72h202q2 2 10.5 20.5t17.5 40t9 25.5 q16 41 25.5 84t9.5 61h-409z" />
<glyph unicode="g" horiz-adv-x="460" d="M47 817q0 -180 24.5 -340t80.5 -301q6 -16 27.5 -44t47 -55.5t47 -50t27.5 -26.5h117v987h-117v-784q-14 12 -31.5 30.5t-36.5 51.5q-35 137 -46 262t-15 235v15q6 51 11 113.5t11.5 126t14.5 125t20 114.5v24q0 14 -10 25.5t-24.5 21t-27.5 18.5t-22 21h209 q10 20 20.5 49t17.5 60t13.5 60.5t10.5 52.5l2 14h-248l-12 -37q-61 -186 -86 -377.5t-25 -390.5z" />
<glyph unicode="h" horiz-adv-x="491" d="M29 1622l4 -35q2 -8 7 -28.5t10 -44t10.5 -43t9.5 -25.5v-545h-27v-133h33v-768h117v748h106v-748h117v1446q4 8 12 31.5t17.5 50t16.5 50.5t9 34v10h-172v-711h-106v711h-164z" />
<glyph unicode="i" horiz-adv-x="296" d="M23 1622h251l-55 -129v-1688q-4 6 -11 27t-13.5 44.5t-11.5 44t-5 26.5q-6 23 -14 71t-14.5 98t-11.5 90t-5 48l-67 1239q-4 6 -10.5 21.5t-12.5 32t-11 31.5l-7 21q0 4 -1 13z" />
<glyph unicode="j" d="M47 0v584h117v-369l31 2l12 25q12 26 16 43q10 31 19.5 68.5t15.5 75.5t10 74t4 66q4 84 7.5 163t4.5 161t2 173t1 200l-15 452q2 -4 9.5 -16t15.5 -25.5t15 -25t10 -17.5q39 -205 60 -397t21 -403q0 -174 -9 -333t-50 -325q-4 -18 -17.5 -49t-27.5 -58.5t-25 -48.5 l-10 -20h-217z" />
<glyph unicode="k" horiz-adv-x="471" d="M23 1622l2 -35q2 -8 7 -28.5t11 -44t11 -43t9 -25.5v-545h-28v-133h33v-768h116v750h11l49 -238l73 -512h127l-131 860l90 586l37 141l4 35h-147l-113 -686v686h-161z" />
<glyph unicode="l" horiz-adv-x="409" d="M23 1622l2 -35q2 -8 7 -28.5t11 -44t11 -43t9 -25.5v-1446h299v164h-178v1458h-161z" />
<glyph unicode="m" horiz-adv-x="712" d="M23 1610q2 -10 9 -37t15 -56.5t15.5 -55t11.5 -34.5v-1427h114v1380l19 11q2 -6 7 -20.5t9 -30t8.5 -29l6.5 -19.5q4 -18 10 -53t12 -70.5t11 -64.5t5 -35l82 -1173h7l88 1206q0 2 7 39t16 84t19.5 94t16.5 72h6q6 0 9 -4.5t3 -6.5v-1380h117v1448q2 8 7 27.5t11.5 42 t12.5 47t10 45.5q0 2 1 7l1 5h-233l-4 -14q-4 -13 -9 -23q-4 -12 -9 -36.5t-10 -50t-9 -45t-6 -21.5l-45 -275h-7q-4 63 -12 119.5t-20.5 109t-26.5 104.5t-29 109l-6 23h-241v-12z" />
<glyph unicode="n" horiz-adv-x="473" d="M23 1604q6 -43 12 -87t28 -85v-1432h117v1378q0 6 44 9.5t118 3.5q-8 -12 -22.5 -21.5t-27.5 -19t-23.5 -20.5t-10.5 -27v-25q6 -16 12 -52t11.5 -75t10.5 -73t9 -48q12 -293 12 -584q0 -315 -12 -636l16 12q2 0 5.5 13t6.5 31.5t6 39t7 33.5q35 223 59.5 439t24.5 439 q0 199 -21.5 387.5t-74.5 380.5l-13 37h-294v-18z" />
<glyph unicode="o" horiz-adv-x="503" d="M47 817q0 -223 41 -396t121 -335l41 -86l43 86q74 160 119 335t45 396q0 199 -21.5 387.5t-75.5 380.5l-12 37h-192l-13 -37q-61 -186 -78.5 -377.5t-17.5 -390.5zM131 1391h242q-8 -12 -21.5 -20.5t-27 -18t-23.5 -20.5t-10 -25v-29q6 -16 12 -52t11 -75t9.5 -73 t8.5 -48q4 -66 6 -109.5t2 -95.5q0 -37 -2 -82t-4 -106q0 -47 -21.5 -123t-60.5 -199q-41 123 -63.5 199t-22.5 123q-2 61 -4 106t-2 82q0 51 2 95.5t8 109.5l7 49t11.5 74t13.5 75t13 50v29q0 14 -10 24t-24.5 19.5t-28 18.5t-21.5 22z" />
<glyph unicode="p" horiz-adv-x="458" d="M23 1622q8 -49 16 -107.5t24 -82.5v-1432h117v375l94 151q37 82 62.5 158t43 157t25 172t7.5 204q-4 82 -21.5 153.5t-40.5 142.5l-6 23l-31 86h-290zM180 537v839q0 6 44 9.5t118 3.5q-8 -12 -20.5 -21.5t-23.5 -19t-19.5 -20.5t-8.5 -25v-25q6 -16 11.5 -51t8.5 -74 t6 -74t5 -49v-78q0 -37 -9 -87t-26.5 -105t-39 -112.5t-46.5 -110.5z" />
<glyph unicode="q" horiz-adv-x="530" d="M47 817q0 -111 9.5 -201t26.5 -170.5t42 -157.5t53 -159q41 -76 94.5 -157t114.5 -162q-8 23 -18.5 54.5t-21.5 66t-21.5 70.5t-18.5 67l12 18q74 160 119 335t45 396q0 199 -22.5 387.5t-75.5 380.5l-12 37h-215l-13 -37q-41 -154 -63.5 -306.5t-30.5 -311.5 q-2 -37 -3 -73t-1 -77zM133 1391h266q-8 -12 -22.5 -20.5t-28.5 -18t-24.5 -20.5t-10.5 -25v-29q6 -16 12.5 -52t12.5 -75t11 -73t9 -48q6 -66 8.5 -109.5t2.5 -95.5v-67l-162 250q18 -49 39.5 -105.5t41 -113t38 -111.5t30.5 -105q-4 -37 -14 -79.5t-23.5 -84.5t-28 -78 t-26.5 -59q-39 123 -67.5 220.5t-28.5 144.5q-2 61 -3 106t-1 82q0 51 2 95.5t8 109.5l7 49t11.5 74t13.5 75t13 50v29q0 14 -10 25t-24.5 20.5t-29 17.5t-22.5 21z" />
<glyph unicode="r" horiz-adv-x="460" d="M23 1622h292q14 -35 18.5 -49t12.5 -37q23 -78 44.5 -154.5t21.5 -164.5q0 -55 -8.5 -118t-30 -139.5t-58 -174t-94.5 -222.5q10 -59 41 -153.5t69 -199t75.5 -205.5t62.5 -171q-57 78 -109.5 159t-97.5 161q-23 51 -43.5 102t-38.5 100v-356h-117v1432q-16 45 -23 92 t-17 98zM180 686q25 53 46.5 113.5t39 119t26.5 111.5t9 90v47v7q-4 23 -9 50t-18 54v25q0 14 7.5 25t18.5 20.5t22.5 18.5t19.5 22h-66q-12 0 -28.5 -1.5t-31.5 -2.5t-25.5 -4t-10.5 -5v-690z" />
<glyph unicode="s" horiz-adv-x="421" d="M43 1425q0 -66 1 -110.5t2 -72.5t2 -41t1 -17q4 -14 11.5 -44t14.5 -61.5t14 -59.5t9 -38q29 -98 63 -196.5t62.5 -197t48 -198.5t19.5 -207q0 -92 -14.5 -177t-36.5 -173q33 23 55 93.5t36.5 155.5t21.5 165t7 121q0 123 -22.5 241.5t-51 237.5t-56 237.5t-37.5 241.5 q0 12 -11 12q-6 6 -29.5 26.5t-31.5 27.5h217q12 20 21.5 47.5t17.5 58.5t13 59.5t9 51.5l2 14h-282q-29 -35 -52.5 -87t-23.5 -110z" />
<glyph unicode="t" horiz-adv-x="454" d="M23 1622q0 -25 6 -62.5t15 -74.5t19.5 -63.5t20.5 -26.5h63l60 -1141q0 -8 5 -48t12 -90t15.5 -97.5t14.5 -71.5q0 -6 5 -26.5t11 -44t12.5 -44t9.5 -27.5v1588h68q12 23 24.5 53.5t22 62t16.5 61t9 52.5h-409z" />
<glyph unicode="u" d="M47 834q0 -172 9.5 -332t47.5 -326q6 -18 19.5 -49t28 -58.5t25.5 -48.5l11 -20h215v1622h-116v-1415l-31 4q0 2 -6 14.5t-14.5 30.5t-10.5 29q-10 31 -18 67.5t-14.5 75.5t-10.5 76t-4 65q-6 125 -10 242t-4 256v199l14 452q-2 -4 -9 -16t-15.5 -25.5t-15.5 -25 t-9 -17.5q-41 -205 -61.5 -397t-20.5 -403z" />
<glyph unicode="v" horiz-adv-x="448" d="M45 756v65v33v16q0 12 2 17q6 152 44 281.5t73 263.5v-199q0 -70 1 -159t2 -180t4 -177t7 -148q0 -57 13.5 -137t31.5 -141q8 31 16.5 67.5t15.5 73.5t11 73t4 64q6 125 10.5 242t4.5 256v199l-15 452q2 -4 9.5 -16t15.5 -25.5t15 -25t9 -17.5q41 -205 61.5 -397 t20.5 -403q0 -174 -9 -333t-50 -325q-6 -18 -19.5 -50t-30 -65.5t-33.5 -68.5t-32 -60q-41 63 -66.5 123t-56.5 121q-31 135 -45 283.5t-14 296.5z" />
<glyph unicode="w" horiz-adv-x="657" d="M47 834q0 -172 9.5 -332t47.5 -326q6 -18 20.5 -49t30 -58.5t27.5 -48.5l11 -20h417l-2 4v1618h-116v-1415l-35 4q0 2 -6.5 14.5t-13.5 30.5t-9 29q-10 31 -19.5 67.5t-15.5 75.5t-10 76t-4 65q-4 125 -8 242t-4 256v199l12 452q-2 -4 -10.5 -15t-16.5 -25.5t-14 -27 t-6 -16.5q-41 -205 -61.5 -397t-20.5 -403q0 -160 7 -317t40 -310l-37 4l-5 9t-11 20.5t-11.5 23.5t-7.5 21q-10 31 -18 67.5t-14.5 75.5t-10.5 76t-4 65q-6 125 -10 242t-4 256v199l14 452q-2 -4 -9 -16t-15.5 -25.5t-15.5 -25t-9 -17.5q-41 -205 -61.5 -397.5 t-20.5 -402.5z" />
<glyph unicode="x" horiz-adv-x="456" d="M27 0h131l69 514l70 -514h131l-133 860l92 586l37 141l4 35h-145l-56 -360l-53 360h-147l4 -35q2 -8 7 -28.5t10 -44t10 -43t10 -25.5l90 -586z" />
<glyph unicode="y" horiz-adv-x="456" d="M27 1622h147l53 -358l56 358h145l-4 -35l-37 -141l-94 -592l-41 -795q0 -10 -5 -50t-12.5 -90t-15.5 -98t-14 -71q0 -8 -5 -27.5t-11.5 -43t-13.5 -43t-11 -27.5v1222l-96 615q-4 6 -9.5 25.5t-10.5 43t-10 44t-7 28.5z" />
<glyph unicode="z" d="M23 1597v25h405l-4 -35q-2 -6 -8 -25.5t-12.5 -42t-11.5 -41t-5 -22.5q-2 -2 -2 -31v-147q0 -23 -2 -53.5t-4 -40.5q-4 -14 -11.5 -44t-14.5 -61.5t-13 -59.5t-8 -38q-29 -98 -62.5 -196.5t-62.5 -197t-48.5 -199t-19.5 -206.5q0 -92 13.5 -177t35.5 -173q-23 12 -40 49 t-30.5 88t-22.5 110.5t-15 115t-9 101.5t-3 71q0 123 22.5 241.5t51 236.5t56 236.5t38.5 241.5q0 12 10 12l61 56h-213l-5 12t-7 16q-6 20 -16.5 50t-19.5 58.5t-16 48.5z" />
<glyph unicode="{" horiz-adv-x="493" d="M43 614v203h66q16 137 54 251t95 235l207 319q-18 -47 -44 -118.5t-53.5 -152.5t-54 -167t-48 -162t-35 -136.5t-13.5 -88.5l-8 -56l8 -104q0 -31 13.5 -91.5t35 -136t48 -161.5t54 -168t53 -152.5t44.5 -117.5l-207 319q-29 61 -52.5 118.5t-42 116t-32.5 120t-22 130.5 h-66z" />
<glyph unicode="|" horiz-adv-x="233" d="M27 1849l4 -37q2 -8 7 -28.5t10 -44t10 -43t10 -25.5v-2060q53 123 83.5 240.5t38.5 240.5v1757h-163z" />
<glyph unicode="}" horiz-adv-x="493" d="M27 -190l206 319q53 123 93.5 234.5t56.5 250.5h68v203h-68q-16 137 -56 251t-94 235l-206 319q18 -49 43.5 -119.5t53.5 -152.5t55.5 -167t49 -160t34.5 -135.5t13 -90.5l9 -56l-9 -104q0 -33 -13 -92.5t-34.5 -135t-49 -160.5t-55.5 -166t-53.5 -152.5t-43.5 -120.5z " />
<glyph unicode="~" horiz-adv-x="389" d="M27 748h98l20 96l31 -96h137l49 161h-98l-24 -100l-25 100h-139z" />
<glyph horiz-adv-x="245" />
<glyph unicode="&#xa1;" horiz-adv-x="296" d="M23 0h251l-55 131v1221q-4 -6 -11 -26.5t-13.5 -44.5t-11.5 -44t-5 -27q-6 -23 -14 -70.5t-14.5 -98t-11.5 -90.5t-5 -48l-67 -772q-4 -6 -10.5 -21.5t-12.5 -33t-11 -32.5l-7 -21q0 -4 -1 -13zM98 1458h121v164h-121v-164z" />
<glyph unicode="&#xa2;" horiz-adv-x="473" d="M47 817q0 -111 11.5 -202t33 -172t51 -156.5t66.5 -157.5l205 -319q-18 47 -44 117.5t-53.5 152.5t-54 168t-48 161.5t-35 136t-13.5 91.5v260q0 29 1 59.5t5 73.5l7 49t11.5 74t13.5 75t13 50v25q0 16 -10 27t-24.5 20.5t-29 18.5t-22.5 22h258q23 43 38 107.5t24 109.5 l2 14h-99v217h-164l5 -35q2 -8 7 -28.5t10 -42t10 -41t9 -25.5v-45h-75l-13 -37q-53 -193 -74.5 -381t-21.5 -387z" />
<glyph unicode="&#xa3;" horiz-adv-x="528" d="M43 0h442v164h-178v584h101v163h-101v480h43q31 59 44.5 107t25.5 95q0 2 1 6.5t1 22.5h-158q-2 -12 -13 -28.5t-24.5 -39t-26 -49t-16.5 -59.5v-537h-104v-164h104v-581h-141v-164z" />
<glyph unicode="&#xa4;" horiz-adv-x="456" d="M27 0h131l45 330l24 -31l25 31l45 -330h131l-78 512q29 72 45.5 149.5t16.5 176.5q0 106 -12.5 210.5t-41.5 208.5l29 189l37 141l4 35h-145l-41 -264h-29l-39 264h-147l4 -35q2 -8 7 -28.5t10 -44t10 -43t10 -25.5l30 -195q-29 -104 -40 -206.5t-11 -206.5 q0 -98 13.5 -177t41.5 -151zM168 799v45q0 29 3 56.5t7 64.5q0 10 4 32.5t9.5 47t10.5 45t9 30.5v25q0 18 -25 35l-8 4h96q-12 -8 -19 -15.5t-7 -23.5v-25q8 -14 14 -46l12 -64q1 -39 7 -45q4 -37 8 -65t4 -56v-45q0 -16 -3 -35t-3 -43q0 -10 -5.5 -32.5t-12.5 -54.5 t-18 -69t-24 -71q-25 74 -40 139t-15 88q0 25 -2 43t-2 35z" />
<glyph unicode="&#xa5;" horiz-adv-x="456" d="M27 1622l4 -35q2 -8 7 -28.5t10 -44t10 -43t10 -25.5l96 -615h-84v-163h84v-60h-84v-162h84v-837q4 8 11 27.5t13.5 43t11.5 43t5 27.5q6 25 14 72t15.5 96t12.5 90t5 51l22 387h99v162h-88l4 60h84v163h-76l2 23l88 592l37 141l4 35h-145l-56 -358l-53 358h-147z" />
<glyph unicode="&#xa6;" horiz-adv-x="227" d="M43 92v1757h164l-4 -37q-2 -8 -7.5 -28.5t-10.5 -44t-10 -43t-9 -25.5v-2060q-51 123 -83 240.5t-40 240.5z" />
<glyph unicode="&#xa7;" horiz-adv-x="456" d="M27 0h131l45 330q63 68 104 137.5t63.5 136t32 127t9.5 107.5q0 106 -12.5 210.5t-41.5 208.5l29 189l37 141l4 35h-145l-41 -264q-55 -41 -93 -107.5t-60.5 -140.5t-32 -146.5t-9.5 -125.5q0 -98 13.5 -177t41.5 -151zM168 799v45q0 29 3 56.5t7 64.5q0 10 4 32.5 t9.5 47t10.5 45t9 30.5v25q0 18 -25 35l-8 4h96q-12 -8 -19 -15.5t-7 -23.5v-25q8 -14 14 -46l12 -64q1 -39 7 -45q4 -37 8 -65t4 -56v-45q0 -16 -3 -35t-3 -43q0 -10 -5.5 -32.5t-12.5 -54.5t-18 -69t-24 -71q-25 74 -40 139t-15 88q0 25 -2 43t-2 35z" />
<glyph unicode="&#xa8;" horiz-adv-x="325" d="M43 1489h96v131h-96v-131zM186 1489h97v131h-97v-131z" />
<glyph unicode="&#xa9;" horiz-adv-x="444" d="M27 1483q0 -51 26 -97q16 -25 32.5 -40t39.5 -31q49 -25 96 -25q2 0 26.5 4t69.5 21q25 16 42.5 31.5t29.5 39.5q27 45 27 97q0 57 -27 96q-23 45 -74 74q-43 24 -94 24q-45 0 -94 -24q-49 -29 -74 -74q-12 -25 -19 -46.5t-7 -49.5zM61 1483q0 43 21 82q23 41 60.5 61.5 t78.5 20.5q31 2 60.5 -12.5t53 -38t37 -53.5t11.5 -60q0 -39 -21 -78q-29 -47 -61 -62q-39 -20 -80 -20q-8 0 -69 18l-13 2q-16 14 -31.5 30t-25.5 32q-10 18 -15.5 38.5t-5.5 39.5zM121 1483q0 -111 100 -111q72 0 94 72l-30 10q-12 -49 -66 -49q-63 0 -63 78q0 82 67 82 q37 0 58 -39l30 6q-23 61 -88 61q-47 0 -74.5 -28.5t-27.5 -81.5z" />
<glyph unicode="&#xaa;" horiz-adv-x="477" d="M43 768v133h31v721h360q-10 -41 -34.5 -87t-24.5 -87v-16q8 -49 17 -108.5t16.5 -116t12.5 -102.5t5 -69q2 -47 4 -109.5t2 -127.5q0 -53 -2 -104.5t-6 -102.5q0 -23 -4 -75t-10.5 -111.5t-12.5 -113.5t-8 -79q-6 -41 -16.5 -107.5t-21.5 -131t-20 -112.5t-14 -52 l-22 -35q2 160 5 313.5t3 312.5q0 88 -2 172t-6 172h-105v-745h-116v768h-31zM190 909h121q0 100 -16 212t-39 212q16 16 36.5 24.5t20.5 33.5h-123v-482z" />
<glyph unicode="&#xab;" horiz-adv-x="391" d="M43 758l133 -45v94l-92 27l92 22v96l-133 -47v-147zM217 758l131 -45v94l-90 27l90 22v96l-131 -47v-147z" />
<glyph unicode="&#xac;" horiz-adv-x="399" d="M43 748h150v-150h163v313h-313v-163z" />
<glyph unicode="&#xad;" horiz-adv-x="229" d="M43 748h143v163h-143v-163z" />
<glyph unicode="&#xae;" horiz-adv-x="444" d="M27 1485q0 -51 26 -96q33 -45 72 -72q43 -25 96 -25q2 0 28.5 3t67.5 22q49 29 72 72q27 45 27 96q0 57 -27 96q-23 47 -74 72q-39 26 -94 26q-49 0 -94 -26q-49 -25 -74 -72q-12 -25 -19 -46.5t-7 -49.5zM61 1485q0 43 21 82q23 41 60.5 61.5t78.5 20.5q31 2 60.5 -12.5 t53 -38t37 -53t11.5 -60.5l-5 -19q-5 -20 -16 -61q-25 -37 -61 -59q-39 -20 -80 -21l-17 4q-18 4 -52 12l-13 5q-20 14 -34.5 28.5t-22.5 30.5q-10 41 -16 61zM139 1380h33v86h18q18 0 27 -8q14 -2 37 -47l16 -31h43l-26 39q-16 23 -24.5 34t-24.5 20q29 2 44 18t15 39 q0 16 -10 33q-6 10 -25 16q-8 8 -53 8h-70v-207zM172 1495v64h37q33 0 35 -3q18 -10 18 -28q0 -16 -10 -24.5t-41 -8.5h-39z" />
<glyph unicode="&#xaf;" horiz-adv-x="454" d="M23 1622q0 -25 6 -62.5t15 -74.5t19.5 -63.5t20.5 -26.5l276 -2q12 23 24.5 53.5t22 62t16.5 61t9 52.5h-409z" />
<glyph unicode="&#xb0;" horiz-adv-x="182" d="M43 1489v131h96v-131h-96zM82 1534h18v41h-18v-41z" />
<glyph unicode="&#xb1;" horiz-adv-x="411" d="M43 330h326v164h-326v-164zM43 748h80v-150h164v150h82v163h-82v138h-164v-138h-80v-163z" />
<glyph unicode="&#xb2;" horiz-adv-x="237" d="M27 1696h145q14 -20 26.5 -48t12.5 -59v-123q-16 -29 -18 -61l-9 -37l-26 -92q-23 -72 -40.5 -144.5t-17.5 -146.5q0 -45 8.5 -93t22.5 -104q-23 14 -38 53.5t-25.5 84.5t-14.5 86t-4 59q0 70 11.5 134.5t27.5 129.5q10 51 20.5 101.5t14.5 101.5q0 14 12 18l2 5h-76 q-10 23 -18 57.5t-12 56.5z" />
<glyph unicode="&#xb3;" horiz-adv-x="274" d="M27 1659v20h151l8 -26q23 -78 32 -159t11 -167h19v-88h-19q-4 -92 -23.5 -161.5t-51.5 -147.5l-91 -154l-18 10q2 2 2 7q0 4 2 6q12 39 30.5 96t36 115.5t30 106.5t12.5 69v43h-74v104h74q0 8 -1 18.5t-3 24.5q0 6 -2 22.5t-5.5 36t-6.5 37t-5 25.5v14q0 20 17 31h-93 q-12 25 -20 59.5t-12 57.5z" />
<glyph unicode="&#xb4;" horiz-adv-x="202" d="M27 1489l47 131h102l-57 -131h-92z" />
<glyph unicode="&#xb5;" horiz-adv-x="456" d="M27 1622l4 -35l37 -141l88 -592l49 -795q0 -10 5 -51t12 -90t15.5 -96t14.5 -72q0 -8 5 -27.5t11 -43t13.5 -43t11.5 -27.5v1222l94 615q4 6 9 25.5t10.5 43t10.5 44t7 28.5l4 35h-145l-56 -358l-53 358h-147z" />
<glyph unicode="&#xb6;" horiz-adv-x="1869" d="M27 559l133 23l-72 75l12 66l140 -14q0 154 55 153h8l133 -43q45 53 77 84t67 45l106 -65l215 96l53 -31l-12 -33l12 -10l238 43l84 -10l-10 -64h284l27 -22q0 -59 -49 -61l244 -60v-12q0 -55 -91 -62q162 -51 162 -84q0 -2 -1 -3l-1 -1l-26 -45h-109l74 -84q0 -2 1 -5 t1 -7v-8q0 -37 -35 -49l-123 22l-10 -129q-16 -23 -47 -22q-29 0 -54.5 10t-72.5 33l-113 -119l-61 -12l-74 67l-227 -108l-37 10v67l-303 -47l-35 23l14 55l-311 25v39l37 34l-193 33q-37 0 -37 41l76 56l-133 55zM66 537l204 -97l-133 -57l287 -55l-94 -64l336 -10 l-41 -74l303 51l37 -41l-11 -47l238 111l111 -64l118 129l156 -45l10 154l160 -22v10q0 31 -94 131l151 12l-12 23l-197 84l123 32h17l-17 25l-278 53l100 62h-323l22 77l-311 -41l-10 64l-27 10l-215 -96l-96 63l-129 -124q-31 -4 -31 -9h2q-41 0 -119 47l-22 -149l-154 8 l10 -45l82 -96zM330 434l18 197l37 8l-12 -190zM410 518v10q-1 90 157 113l-8 -45l-12 4h-10q-31 0 -56 -29q-33 -39 -32 -75q0 -39 45 -39q16 0 23 1t18 1l2 -29q-16 -4 -24.5 -7t-18.5 -3q-63 0 -82 84q-2 2 -2 14zM580 469q0 117 82 168h6h12q72 0 88 -66 q-18 -133 -82 -133q-10 -2 -17 -3t-18 -1q-55 0 -71 35zM621 518q0 -45 34 -45q10 0 22.5 2t35.5 12q18 31 18 56q0 16 -8 24q-16 25 -41 25q-35 0 -61 -62v-12zM793 627l125 -123l2 135l41 -12v-189q-47 0 -127 92v-90l-33 -6zM997 442l23 197l41 4l-8 -186zM1085 455 q6 47 27 94t62 94q4 4 28 4q33 0 62 -59v-144l-35 11q-14 45 -45 45q-29 0 -54 -45h-45zM1151 539h68l-25 63zM1294 442v193l121 -123l10 131l35 -6v-193q-49 0 -131 95v-95zM1493 426l25 18l32 -10l-34 -28zM1511 500l7 143l51 -8l-27 -141z" />
<glyph unicode="&#xb7;" horiz-adv-x="219" d="M49 631h123v164h-123v-164z" />
<glyph unicode="&#xb8;" horiz-adv-x="182" d="M-84 -309q117 135 178.5 241.5t61.5 151.5l-95 22q-41 -119 -80.5 -231.5t-64.5 -183.5z" />
<glyph unicode="&#xb9;" horiz-adv-x="198" d="M27 1677h120q10 -10 17.5 -45t7.5 -78l-27 -651q0 -4 -2 -24.5t-5 -45t-7 -48t-6 -35.5q0 -6 -3 -16.5t-6 -23t-7.5 -23.5t-6.5 -15l-14 4v866h-25q-10 25 -22 68t-14 67z" />
<glyph unicode="&#xba;" horiz-adv-x="270" d="M27 1272q0 -113 19.5 -196t53.5 -165l35 -57l33 57q35 84 55.5 167t20.5 194q0 98 -10.5 191t-34.5 186l-6 26h-115l-8 -26q-23 -92 -33 -185.5t-10 -191.5zM100 1184v135q0 10 1 23.5t3 29.5q0 6 2.5 23.5t5.5 36t6 36t7 25.5v16q0 12 -6 18.5t-15 10.5h60 q-8 -4 -13.5 -10t-5.5 -19v-16q4 -12 8.5 -37.5t8.5 -48.5q0 -31 4 -35q4 -31 5 -52.5t1 -43.5v-92q-2 -16 -12 -70.5t-25 -107.5q-16 55 -25.5 108t-9.5 70z" />
<glyph unicode="&#xbb;" horiz-adv-x="391" d="M41 713v94l92 27l-92 22v96l133 -47v-147zM215 713v94l90 27l-90 22v96l131 -47v-147z" />
<glyph unicode="&#xbc;" horiz-adv-x="1792" d="M27 537l204 -97l-133 -57l287 -55l-94 -64l336 -10l-41 -74l303 51l37 -41l-11 -47l238 111l111 -64l118 129l156 -45l10 154l160 -22v10q0 31 -94 131l151 12l-12 23l-197 84l123 32h17l-17 25l-278 53l100 62h-323l22 77l-311 -41l-10 64l-27 10l-215 -96l-96 63 l-129 -124q-31 -4 -31 -9h2q-41 0 -119 47l-22 -149l-154 8l10 -45l80 -96zM291 434l18 197l37 8l-12 -190zM371 518v10q-1 90 157 113l-8 -45l-12 4h-10q-31 0 -56 -29q-33 -39 -32 -75q0 -39 45 -39q16 0 23 1t18 1l2 -29q-16 -4 -24.5 -7t-18.5 -3q-63 0 -82 84 q-2 2 -2 14zM541 469q0 117 82 168h6h12q72 0 88 -66q-18 -133 -82 -133q-10 -2 -17 -3t-18 -1q-55 0 -71 35zM582 518q0 -45 34 -45q10 0 22.5 2t35.5 12q18 31 18 56q0 16 -8 24q-16 25 -41 25q-35 0 -61 -62v-12zM754 627l125 -123l2 135l41 -12v-189q-47 0 -127 92v-90 l-33 -6zM958 442l23 197l41 4l-8 -186zM1047 455q6 47 26.5 94t61.5 94q4 4 28 4q33 0 62 -59v-144l-35 11q-14 45 -45 45q-29 0 -53 -45h-45zM1112 539h68l-25 63zM1255 442v193l121 -123l10 131l35 -6v-193q-49 0 -131 95v-95zM1454 426l25 18l32 -10l-34 -28zM1473 500 l6 143l51 -8l-27 -141z" />
<glyph unicode="&#xbd;" horiz-adv-x="643" d="M27 1569h120q10 -10 17.5 -46t7.5 -77l-27 -651q0 -4 -2 -24.5t-5 -45.5t-7 -48.5t-6 -35.5q0 -6 -3 -16.5t-6 -22.5t-7.5 -23.5t-6.5 -15.5l-14 2v869h-25q-10 25 -22 67.5t-14 67.5zM86 0l254 1622h147l-4 -35l-37 -141l-229 -1446h-131zM416 958h145 q14 -20 26.5 -47.5t12.5 -58.5v-123q-16 -29 -18 -61l-9 -37l-26 -92q-23 -72 -39 -144.5t-16 -146.5q0 -45 7 -93.5t21 -103.5q-23 14 -38 53t-25.5 84t-14.5 86t-4 60q0 70 11.5 134t27.5 130q10 51 20.5 101.5t14.5 101.5q0 14 12 18l2 4h-75q-10 23 -18.5 57.5 t-12.5 57.5z" />
<glyph unicode="&#xbe;" horiz-adv-x="1325" d="M43 434l20 197l37 8l-12 -190zM123 518v10q0 90 158 113l-9 -45l-12 4h-8q-29 0 -57 -29q-33 -45 -33 -75q0 -39 47 -39q16 0 23.5 1t17.5 1l2 -29q-16 -4 -24.5 -7t-18.5 -3q-61 0 -84 84q-2 2 -2 14zM295 469q0 115 80 168h6h12q72 0 90 -66q-23 -133 -82 -133 q-10 -2 -17 -3t-17 -1q-59 0 -72 35zM334 518q0 -45 37 -45q10 0 21 2t34 12q20 27 20 56q0 18 -10 24q-16 25 -41 25q-35 0 -61 -62v-12zM506 627l125 -123l4 135l41 -12v-189q-47 0 -129 92v-90l-33 -6zM713 442l20 197l41 4l-8 -186zM801 455q10 94 86 188q4 4 31 4 q31 0 59 -59v-144l-33 11q-18 45 -47 45t-53 -45h-43zM866 539h66l-23 63zM1008 442v193l120 -123l13 131l33 -6v-193q-49 0 -132 95v-95zM1206 426l25 18l35 -10l-37 -28zM1227 500l4 143l51 -8l-25 -141z" />
<glyph unicode="&#xbf;" horiz-adv-x="425" d="M23 197q0 -57 23.5 -109.5t51.5 -87.5h281l-2 16q-4 20 -10.5 49t-13.5 60t-16 58.5t-20 47.5h-217q2 2 11.5 10.5t18.5 16.5t18.5 16.5t13.5 12.5q10 0 10 10q8 123 28.5 233.5t42 220t41 221t25.5 234.5v6q0 23 -10 60t-23.5 70.5t-23.5 57t-10 19.5q-4 -137 -28 -269 t-52.5 -238.5t-54 -179.5t-31.5 -91q-2 -10 -9.5 -39t-14.5 -60.5t-14 -60t-11 -41.5q-2 -10 -3 -41.5t-1 -54.5v-147zM188 1458h123v164h-123v-164z" />
<glyph unicode="&#xc0;" horiz-adv-x="485" d="M47 1622q10 -41 33.5 -87t23.5 -87v-16q-8 -49 -17 -108.5t-16.5 -116t-11.5 -102.5t-4 -69q-2 -47 -4 -109.5t-2 -127.5q0 -53 2 -104.5t6 -102.5q0 -23 4.5 -75t10.5 -111.5t12 -113.5t8 -79q6 -41 16.5 -107.5t21.5 -131t20.5 -112.5t13.5 -52l20 -35q-2 160 -4 313.5 t-2 312.5q0 88 1 172t5 172h107v-745h117v768h30v133h-30v721h-361zM156 1812l57 -131h90l-45 131h-102zM168 1391h123v-482h-121q0 100 16 212t39 212q-16 16 -36.5 24.5t-20.5 33.5z" />
<glyph unicode="&#xc1;" horiz-adv-x="485" d="M47 1622q10 -41 33.5 -87t23.5 -87v-16q-8 -49 -17 -108.5t-16.5 -116t-11.5 -102.5t-4 -69q-2 -47 -4 -109.5t-2 -127.5q0 -53 2 -104.5t6 -102.5q0 -23 4.5 -75t10.5 -111.5t12 -113.5t8 -79q6 -41 16.5 -107.5t21.5 -131t20.5 -112.5t13.5 -52l20 -35q-2 160 -4 313.5 t-2 312.5q0 88 1 172t5 172h107v-745h117v768h30v133h-30v721h-361zM168 1391h123v-482h-121q0 100 16 212t39 212q-16 16 -36.5 24.5t-20.5 33.5zM172 1681h90l57 131h-100z" />
<glyph unicode="&#xc2;" horiz-adv-x="485" d="M47 1622q10 -41 33.5 -87t23.5 -87v-16q-8 -49 -17 -108.5t-16.5 -116t-11.5 -102.5t-4 -69q-2 -47 -4 -109.5t-2 -127.5q0 -53 2 -104.5t6 -102.5q0 -23 4.5 -75t10.5 -111.5t12 -113.5t8 -79q6 -41 16.5 -107.5t21.5 -131t20.5 -112.5t13.5 -52l20 -35q-2 160 -4 313.5 t-2 312.5q0 88 1 172t5 172h107v-745h117v768h30v133h-30v721h-361zM119 1681h96l25 91l22 -91h96l-47 131h-145zM168 1391h123v-482h-121q0 100 16 212t39 212q-16 16 -36.5 24.5t-20.5 33.5z" />
<glyph unicode="&#xc3;" horiz-adv-x="485" d="M47 1622q10 -41 33.5 -87t23.5 -87v-16q-8 -49 -17 -108.5t-16.5 -116t-11.5 -102.5t-4 -69q-2 -47 -4 -109.5t-2 -127.5q0 -53 2 -104.5t6 -102.5q0 -23 4.5 -75t10.5 -111.5t12 -113.5t10 -79q4 -41 14.5 -107.5t20.5 -131t20.5 -112.5t14.5 -52l20 -35 q-2 160 -4 313.5t-2 312.5q0 88 1 172t5 172h107v-745h117v768h30v133h-30v721h-361zM84 1681h94l23 80l26 -80h138l47 131h-97l-22 -79l-27 79h-135zM168 1391h123v-482h-121q0 100 16 212t39 212q-16 16 -36.5 24.5t-20.5 33.5z" />
<glyph unicode="&#xc4;" horiz-adv-x="485" d="M47 1622q10 -41 33.5 -87t23.5 -87v-16q-8 -49 -17 -108.5t-16.5 -116t-11.5 -102.5t-4 -69q-2 -47 -4 -109.5t-2 -127.5q0 -53 2 -104.5t6 -102.5q0 -23 4.5 -75t10.5 -111.5t12 -113.5t8 -79q6 -41 16.5 -107.5t21.5 -131t20.5 -112.5t13.5 -52l20 -35q-2 160 -4 313.5 t-2 312.5q0 88 1 172t5 172h107v-745h117v768h30v133h-30v721h-361zM119 1681h96v131h-96v-131zM168 1391h123v-482h-121q0 100 16 212t39 212q-16 16 -36.5 24.5t-20.5 33.5zM262 1681h96v131h-96v-131z" />
<glyph unicode="&#xc5;" horiz-adv-x="485" d="M47 1622h361v-721h30v-133h-30v-768h-117v745h-107q-4 -88 -5 -172t-1 -172q0 -160 2 -313.5t4 -312.5l-20 35q-4 4 -13.5 52t-20.5 112.5t-21.5 131t-16.5 107.5q-2 25 -8 79t-12 113.5t-10.5 111.5t-4.5 75q-4 51 -6 102t-2 105q0 66 2 128t4 109q0 23 4 69t11.5 102.5 t16.5 115.5t17 109v16q0 41 -23.5 87t-33.5 87zM168 1391q0 -25 20.5 -33.5t36.5 -24.5q-23 -100 -39 -211.5t-16 -212.5h121v482h-123zM193 1681v131h96v-131h-96zM231 1726h21v43h-21v-43z" />
<glyph unicode="&#xc6;" horiz-adv-x="628" d="M43 1622q10 -41 33.5 -87t23.5 -87v-16q-8 -49 -17 -108.5t-16.5 -116t-11.5 -102.5t-4 -69q-2 -47 -4 -109.5t-2 -127.5q0 -53 2 -104.5t6 -102.5q0 -23 4 -75t10.5 -111.5t12.5 -113.5t8 -79q6 -41 16.5 -107.5t21.5 -131t20.5 -112.5t13.5 -52l20 -35q-2 160 -4 313.5 t-2 312.5q0 88 1 172t5 172h107v-745h299v164h-176v584h118v163h-118v480h102q31 59 44 107t26 95q0 2 1 6.5t1 22.5h-541zM164 1391h123v-482h-121q0 100 16 212t39 212q-16 16 -36.5 24.5t-20.5 33.5z" />
<glyph unicode="&#xc7;" horiz-adv-x="473" d="M47 817q0 -111 11.5 -202t33 -172t51 -156.5t66.5 -157.5l12 -23q-37 -119 -78 -230.5t-65 -184.5l207 319l129 -200q-16 49 -42 121.5t-55 152.5q-45 135 -85.5 270.5t-65.5 282.5v260q0 29 1 59.5t5 73.5l7 49t11.5 74t13.5 75t13 50v25q0 16 -10 27t-24.5 20.5 t-29 18.5t-22.5 22h258q23 43 38 107.5t24 109.5l2 14h-297l-13 -37q-53 -193 -74.5 -381t-21.5 -387z" />
<glyph unicode="&#xc8;" horiz-adv-x="417" d="M27 1622q4 -37 18 -90t27 -86v-545h-29v-133h29v-768h301v164h-178v584h120v163h-120v480h102q31 59 44 107t28 95q0 2 1 6.5t1 22.5h-344zM129 1812l55 -131h92l-47 131h-100z" />
<glyph unicode="&#xc9;" horiz-adv-x="417" d="M27 1622q4 -37 18 -90t27 -86v-545h-29v-133h29v-768h301v164h-178v584h120v163h-120v480h102q31 59 44 107t28 95q0 2 1 6.5t1 22.5h-344zM139 1681h90l58 131h-103z" />
<glyph unicode="&#xca;" horiz-adv-x="417" d="M27 1622q4 -37 18 -90t27 -86v-545h-29v-133h29v-768h301v164h-178v584h120v163h-120v480h102q31 59 44 107t28 95q0 2 1 6.5t1 22.5h-344zM88 1681h94l27 91l22 -91h97l-47 131h-146z" />
<glyph unicode="&#xcb;" horiz-adv-x="417" d="M27 1622q4 -37 18 -90t27 -86v-545h-29v-133h29v-768h301v164h-178v584h120v163h-120v480h102q31 59 44 107t28 95q0 2 1 6.5t1 22.5h-344zM88 1681h94v131h-94v-131zM231 1681h97v131h-97v-131z" />
<glyph unicode="&#xcc;" horiz-adv-x="296" d="M23 1614q0 -8 2 -14.5t6 -22.5q10 -20 19.5 -47t15.5 -37l67 -1434q0 -10 5 -51t11.5 -90t14.5 -96t14 -72q0 -6 5 -26.5t11.5 -44t13.5 -44t11 -26.5v1884l55 129h-251v-8zM61 1812l56 -131h92l-47 131h-101z" />
<glyph unicode="&#xcd;" horiz-adv-x="296" d="M23 1614q0 -8 2 -14.5t6 -22.5q10 -20 19.5 -47t15.5 -37l67 -1434q0 -10 5 -51t11.5 -90t14.5 -96t14 -72q0 -6 5 -26.5t11.5 -44t13.5 -44t11 -26.5v1884l55 129h-251v-8zM80 1681h92l55 131h-100z" />
<glyph unicode="&#xce;" horiz-adv-x="296" d="M23 1614q0 -8 2 -14.5t6 -22.5q10 -20 19.5 -47t15.5 -37l67 -1434q0 -10 5 -51t11.5 -90t14.5 -96t14 -72q0 -6 5 -26.5t11.5 -44t13.5 -44t11 -26.5v1884l55 129h-251v-8zM27 1681h96l24 91l25 -91h94l-47 131h-145z" />
<glyph unicode="&#xcf;" horiz-adv-x="296" d="M23 1614q0 -8 2 -14.5t6 -22.5q10 -20 19.5 -47t15.5 -37l67 -1434q0 -10 5 -51t11.5 -90t14.5 -96t14 -72q0 -6 5 -26.5t11.5 -44t13.5 -44t11 -26.5v1884l55 129h-251v-8zM27 1681h96v131h-96v-131zM172 1681h94v131h-94v-131z" />
<glyph unicode="&#xd0;" horiz-adv-x="520" d="M43 748h72v-748h116v4l84 125q37 82 67 157.5t51.5 156.5t32.5 172.5t11 201.5q0 199 -22.5 387.5t-75.5 380.5l-10 37h-297l2 -14q6 -47 14 -91t27 -85v-521h-72v-163zM231 156v592h70v163h-70v469q0 6 44 9.5t118 3.5q-8 -12 -22.5 -20.5t-28.5 -17.5t-24.5 -20.5 t-10.5 -25.5v-31q6 -16 12.5 -52t12.5 -75t11 -73t9 -48q4 -43 5 -76.5t1 -85.5v-80v-151q0 -59 -12 -122.5t-30.5 -126t-41 -122t-43.5 -110.5z" />
<glyph unicode="&#xd1;" horiz-adv-x="473" d="M23 1604q6 -43 12 -87t28 -85v-1432h117v1378q0 6 44 9.5t118 3.5q-8 -12 -22.5 -21.5t-27.5 -19t-23.5 -20.5t-10.5 -27v-25q6 -16 12 -52t11.5 -75t10.5 -73t9 -48q12 -293 12 -584q0 -315 -12 -636l16 12q2 0 5.5 13t6.5 31.5t6 39t7 33.5q35 223 59.5 439t24.5 439 q0 199 -21.5 387.5t-74.5 380.5l-13 37h-294v-18zM53 1681h94l23 80l27 -80h137l45 131h-94l-25 -79l-24 79h-136z" />
<glyph unicode="&#xd2;" horiz-adv-x="528" d="M47 817q0 -113 11.5 -210t32 -186t50 -171t66.5 -164l53 -86l57 86q74 160 119 335t45 396q0 199 -22.5 387.5t-75.5 380.5l-10 37h-217l-13 -37q-53 -193 -74.5 -381t-21.5 -387zM131 1391h266q-8 -12 -22.5 -20.5t-28.5 -18t-24.5 -20.5t-10.5 -25v-29q6 -16 12.5 -52 t12.5 -75t11 -73t9 -48q6 -66 8.5 -109.5t2.5 -95.5q0 -37 -1 -82t-4 -106q0 -23 -8 -74t-21.5 -114.5t-31.5 -132t-39 -128.5q-18 61 -35.5 130t-31 132.5t-21.5 113.5t-8 73q-2 61 -3 106t-1 82q0 51 2 95.5t8 109.5l7 49t11.5 74t13.5 75t13 50v29q0 14 -10 25 t-24.5 20.5t-29 17.5t-22.5 21zM182 1812l58 -131h92l-47 131h-103z" />
<glyph unicode="&#xd3;" horiz-adv-x="528" d="M47 817q0 -113 11.5 -210t32 -186t50 -171t66.5 -164l53 -86l57 86q74 160 119 335t45 396q0 199 -22.5 387.5t-75.5 380.5l-10 37h-217l-13 -37q-53 -193 -74.5 -381t-21.5 -387zM131 1391h266q-8 -12 -22.5 -20.5t-28.5 -18t-24.5 -20.5t-10.5 -25v-29q6 -16 12.5 -52 t12.5 -75t11 -73t9 -48q6 -66 8.5 -109.5t2.5 -95.5q0 -37 -1 -82t-4 -106q0 -23 -8 -74t-21.5 -114.5t-31.5 -132t-39 -128.5q-18 61 -35.5 130t-31 132.5t-21.5 113.5t-8 73q-2 61 -3 106t-1 82q0 51 2 95.5t8 109.5l7 49t11.5 74t13.5 75t13 50v29q0 14 -10 25 t-24.5 20.5t-29 17.5t-22.5 21zM195 1681h92l55 131h-100z" />
<glyph unicode="&#xd4;" horiz-adv-x="528" d="M47 817q0 -113 11.5 -210t32 -186t50 -171t66.5 -164l53 -86l57 86q74 160 119 335t45 396q0 199 -22.5 387.5t-75.5 380.5l-10 37h-217l-13 -37q-53 -193 -74.5 -381t-21.5 -387zM131 1391h266q-8 -12 -22.5 -20.5t-28.5 -18t-24.5 -20.5t-10.5 -25v-29q6 -16 12.5 -52 t12.5 -75t11 -73t9 -48q6 -66 8.5 -109.5t2.5 -95.5q0 -37 -1 -82t-4 -106q0 -23 -8 -74t-21.5 -114.5t-31.5 -132t-39 -128.5q-18 61 -35.5 130t-31 132.5t-21.5 113.5t-8 73q-2 61 -3 106t-1 82q0 51 2 95.5t8 109.5l7 49t11.5 74t13.5 75t13 50v29q0 14 -10 25 t-24.5 20.5t-29 17.5t-22.5 21zM143 1681h97l24 91l25 -91h94l-47 131h-146z" />
<glyph unicode="&#xd5;" horiz-adv-x="528" d="M47 817q0 -113 11.5 -210t32 -186t50 -171t66.5 -164l53 -86l57 86q74 160 119 335t45 396q0 199 -22.5 387.5t-75.5 380.5l-10 37h-217l-13 -37q-53 -193 -74.5 -381t-21.5 -387zM100 1681h97l22 80l27 -80h135l47 131h-94l-25 -79l-24 79h-138zM131 1391h266 q-8 -12 -22.5 -20.5t-28.5 -18t-24.5 -20.5t-10.5 -25v-29q6 -16 12.5 -52t12.5 -75t11 -73t9 -48q6 -66 8.5 -109.5t2.5 -95.5q0 -37 -1 -82t-4 -106q0 -23 -8 -74t-21.5 -114.5t-31.5 -132t-39 -128.5q-18 61 -35.5 130t-31 132.5t-21.5 113.5t-8 73q-2 61 -3 106t-1 82 q0 51 2 95.5t8 109.5l7 49t11.5 74t13.5 75t13 50v29q0 14 -10 25t-24.5 20.5t-29 17.5t-22.5 21z" />
<glyph unicode="&#xd6;" horiz-adv-x="528" d="M47 817q0 -113 11.5 -210t32 -186t50 -171t66.5 -164l53 -86l57 86q74 160 119 335t45 396q0 199 -22.5 387.5t-75.5 380.5l-10 37h-217l-13 -37q-53 -193 -74.5 -381t-21.5 -387zM131 1391h266q-8 -12 -22.5 -20.5t-28.5 -18t-24.5 -20.5t-10.5 -25v-29q6 -16 12.5 -52 t12.5 -75t11 -73t9 -48q6 -66 8.5 -109.5t2.5 -95.5q0 -37 -1 -82t-4 -106q0 -23 -8 -74t-21.5 -114.5t-31.5 -132t-39 -128.5q-18 61 -35.5 130t-31 132.5t-21.5 113.5t-8 73q-2 61 -3 106t-1 82q0 51 2 95.5t8 109.5l7 49t11.5 74t13.5 75t13 50v29q0 14 -10 25 t-24.5 20.5t-29 17.5t-22.5 21zM143 1681h97v131h-97v-131zM289 1681h94v131h-94v-131z" />
<glyph unicode="&#xd7;" horiz-adv-x="415" d="M27 893l67 -64l-65 -65l114 -115l66 66l63 -66l115 115l-63 65l65 64l-117 117l-63 -66l-66 66z" />
<glyph unicode="&#xd8;" horiz-adv-x="503" d="M47 817q0 -223 40 -396t120 -335l43 -86l45 86q37 82 66.5 164t51 171t33 187.5t11.5 208.5q0 199 -21.5 387.5t-75.5 380.5l-12 37h-192l-13 -37q-61 -186 -78.5 -377.5t-17.5 -390.5zM131 1391h242q-8 -12 -22.5 -20.5t-28 -18t-23.5 -20.5t-10 -25v-29q6 -16 12 -52 t11 -75t10.5 -73t9.5 -48q4 -66 6 -109.5t2 -95.5q0 -37 -1 -82t-3 -106q0 -47 -22.5 -123t-61.5 -199q-41 123 -64.5 199t-23.5 123q-2 61 -3 106t-1 82q0 51 2 95.5t8 109.5l7 49t12.5 74t14.5 75t13 50v29q0 14 -10 25t-24.5 20.5t-29 17.5t-22.5 21z" />
<glyph unicode="&#xd9;" d="M47 834q0 -172 9.5 -332t47.5 -326q6 -18 19.5 -49t28 -58.5t25.5 -48.5l11 -20h215v1622h-116v-1407l-31 2q0 2 -6 12.5t-14.5 27.5t-10.5 28q-10 31 -18 67.5t-14.5 75.5t-10.5 76t-4 65q-6 125 -10 242t-4 256v199l14 452q-2 -4 -9 -16t-15.5 -25.5t-15.5 -25 t-9 -17.5q-41 -205 -61.5 -397t-20.5 -403zM156 1812l57 -131h90l-45 131h-102z" />
<glyph unicode="&#xda;" d="M47 834q0 -172 9.5 -332t47.5 -326q6 -18 19.5 -49t28 -58.5t25.5 -48.5l11 -20h215v1622h-116v-1407l-31 2q0 2 -6 12.5t-14.5 27.5t-10.5 28q-10 31 -18 67.5t-14.5 75.5t-10.5 76t-4 65q-6 125 -10 242t-4 256v199l12 415h86l57 131h-100l-41 -94q-2 -4 -9 -16 t-15.5 -25.5t-15.5 -25t-9 -17.5q-41 -205 -61.5 -397.5t-20.5 -402.5z" />
<glyph unicode="&#xdb;" d="M47 834q0 -172 9.5 -332t47.5 -326q6 -18 19.5 -49t28 -58.5t25.5 -48.5l11 -20h215v1622h-116v-1407l-31 2q0 2 -6 12.5t-14.5 27.5t-10.5 28q-10 31 -18 67.5t-14.5 75.5t-10.5 76t-4 65q-6 125 -10 242t-4 256v199l12 415h39l25 91l22 -91h96l-47 131h-145l-47 -131 h35q-20 -33 -25 -47q-41 -205 -61.5 -397.5t-20.5 -402.5z" />
<glyph unicode="&#xdc;" d="M47 834q0 -172 9.5 -332t47.5 -326q6 -18 19.5 -49t28 -58.5t25.5 -48.5l11 -20h215v1622h-116v-1407l-31 2q0 2 -6 12.5t-14.5 27.5t-10.5 28q-10 31 -18 67.5t-14.5 75.5t-10.5 76t-4 65q-6 125 -10 242t-4 256v199l12 415h49v131h-94v-131h23q-20 -33 -25 -47 q-41 -205 -61.5 -397.5t-20.5 -402.5zM274 1681h97v131h-97v-131z" />
<glyph unicode="&#xdd;" horiz-adv-x="456" d="M27 1622l4 -35q2 -8 7 -28.5t10 -44t10 -43t10 -25.5l96 -615v-1222q4 8 11 27.5t13.5 43t11.5 43t5 27.5q6 25 14 72t15.5 96t12.5 90t5 51l47 795l88 592l37 141l4 35h-145l-56 -358l-53 358h-147zM172 1681h90l57 131h-100z" />
<glyph unicode="&#xde;" d="M23 1849l2 -37q2 -8 7 -28.5t11 -44t11 -43t9 -25.5l-2 -1134l27 -478q0 -10 5 -51t12.5 -90t15.5 -96t14 -72q0 -8 5 -27.5t11.5 -43t13.5 -43t11 -27.5v702l92 189q6 12 11.5 22t11.5 21q33 66 55.5 115t35.5 101t19.5 119.5t6.5 172.5q0 88 -23 165.5t-47 155.5 l-31 86h-123v391h-161zM176 481v729q0 8 43 11.5t117 3.5q-8 -12 -20.5 -21.5t-23.5 -18.5t-19.5 -20.5t-8.5 -25.5v-27q6 -16 11.5 -47t8.5 -62.5t6 -61.5t5 -46v-88q0 -37 -10.5 -74t-26.5 -76t-37.5 -82t-44.5 -94z" />
<glyph unicode="&#xdf;" horiz-adv-x="675" d="M43 1493l66 -1434q0 -10 5 -51t12 -90t15.5 -96t14.5 -72q0 -8 5 -27.5t11 -43t13.5 -43t11.5 -27.5v1782h317q-8 -12 -22.5 -21.5t-28.5 -19t-24.5 -20.5t-10.5 -27v-25q6 -14 13.5 -50t13.5 -75t11 -74l7 -49q4 -37 6 -63.5t2 -55.5h-162v-163h164v-54q0 -10 -1 -23.5 t-3 -29.5v-4q0 -33 -14 -93.5t-35.5 -135t-50.5 -159.5t-56.5 -166t-52 -152.5t-41.5 -120.5l207 319q35 78 62.5 149.5t49 146.5t34 158t16.5 185h35v133h-37q-4 180 -23.5 348t-72.5 336l-11 37h-393q-8 -6 -17 -21.5t-16.5 -31t-12.5 -28.5t-5 -15z" />
<glyph unicode="&#xe0;" horiz-adv-x="485" d="M47 1622q10 -41 33.5 -87t23.5 -87v-16q-8 -49 -17 -108.5t-16.5 -116t-11.5 -102.5t-4 -69q-2 -47 -4 -109.5t-2 -127.5q0 -53 2 -104.5t6 -102.5q0 -23 4.5 -75t10.5 -111.5t12 -113.5t8 -79q6 -41 16.5 -107.5t21.5 -131t20.5 -112.5t13.5 -52l20 -35q-2 160 -4 313.5 t-2 312.5q0 88 1 172t5 172h107v-745h117v768h30v133h-30v721h-361zM156 1812l57 -131h90l-45 131h-102zM168 1391h123v-482h-121q0 100 16 212t39 212q-16 16 -36.5 24.5t-20.5 33.5z" />
<glyph unicode="&#xe1;" horiz-adv-x="485" d="M47 1622q10 -41 33.5 -87t23.5 -87v-16q-8 -49 -17 -108.5t-16.5 -116t-11.5 -102.5t-4 -69q-2 -47 -4 -109.5t-2 -127.5q0 -53 2 -104.5t6 -102.5q0 -23 4.5 -75t10.5 -111.5t12 -113.5t8 -79q6 -41 16.5 -107.5t21.5 -131t20.5 -112.5t13.5 -52l20 -35q-2 160 -4 313.5 t-2 312.5q0 88 1 172t5 172h107v-745h117v768h30v133h-30v721h-361zM168 1391h123v-482h-121q0 100 16 212t39 212q-16 16 -36.5 24.5t-20.5 33.5zM172 1681h90l57 131h-100z" />
<glyph unicode="&#xe2;" horiz-adv-x="485" d="M47 1622q10 -41 33.5 -87t23.5 -87v-16q-8 -49 -17 -108.5t-16.5 -116t-11.5 -102.5t-4 -69q-2 -47 -4 -109.5t-2 -127.5q0 -53 2 -104.5t6 -102.5q0 -23 4.5 -75t10.5 -111.5t12 -113.5t8 -79q6 -41 16.5 -107.5t21.5 -131t20.5 -112.5t13.5 -52l20 -35q-2 160 -4 313.5 t-2 312.5q0 88 1 172t5 172h107v-745h117v768h30v133h-30v721h-361zM119 1681h96l25 91l22 -91h96l-47 131h-145zM168 1391h123v-482h-121q0 100 16 212t39 212q-16 16 -36.5 24.5t-20.5 33.5z" />
<glyph unicode="&#xe3;" horiz-adv-x="485" d="M47 1622q10 -41 33.5 -87t23.5 -87v-16q-8 -49 -17 -108.5t-16.5 -116t-11.5 -102.5t-4 -69q-2 -47 -4 -109.5t-2 -127.5q0 -53 2 -104.5t6 -102.5q0 -23 4.5 -75t10.5 -111.5t12 -113.5t10 -79q4 -41 14.5 -107.5t20.5 -131t20.5 -112.5t14.5 -52l20 -35 q-2 160 -4 313.5t-2 312.5q0 88 1 172t5 172h107v-745h117v768h30v133h-30v721h-361zM84 1681h94l23 80l26 -80h138l47 131h-97l-22 -79l-27 79h-135zM168 1391h123v-482h-121q0 100 16 212t39 212q-16 16 -36.5 24.5t-20.5 33.5z" />
<glyph unicode="&#xe4;" horiz-adv-x="485" d="M47 1622q10 -41 33.5 -87t23.5 -87v-16q-8 -49 -17 -108.5t-16.5 -116t-11.5 -102.5t-4 -69q-2 -47 -4 -109.5t-2 -127.5q0 -53 2 -104.5t6 -102.5q0 -23 4.5 -75t10.5 -111.5t12 -113.5t8 -79q6 -41 16.5 -107.5t21.5 -131t20.5 -112.5t13.5 -52l20 -35q-2 160 -4 313.5 t-2 312.5q0 88 1 172t5 172h107v-745h117v768h30v133h-30v721h-361zM119 1681h96v131h-96v-131zM168 1391h123v-482h-121q0 100 16 212t39 212q-16 16 -36.5 24.5t-20.5 33.5zM262 1681h96v131h-96v-131z" />
<glyph unicode="&#xe5;" horiz-adv-x="485" d="M47 1622h361v-721h30v-133h-30v-768h-117v745h-107q-4 -88 -5 -172t-1 -172q0 -160 2 -313.5t4 -312.5l-20 35q-4 4 -13.5 52t-20.5 112.5t-21.5 131t-16.5 107.5q-2 25 -8 79t-12 113.5t-10.5 111.5t-4.5 75q-4 51 -6 102t-2 105q0 66 2 128t4 109q0 23 4 69t11.5 102.5 t16.5 115.5t17 109v16q0 41 -23.5 87t-33.5 87zM168 1391q0 -25 20.5 -33.5t36.5 -24.5q-23 -100 -39 -211.5t-16 -212.5h121v482h-123zM193 1681v131h96v-131h-96zM231 1726h21v43h-21v-43z" />
<glyph unicode="&#xe6;" horiz-adv-x="628" d="M43 1622q10 -41 33.5 -87t23.5 -87v-16q-8 -49 -17 -108.5t-16.5 -116t-11.5 -102.5t-4 -69q-2 -47 -4 -109.5t-2 -127.5q0 -53 2 -104.5t6 -102.5q0 -23 4 -75t10.5 -111.5t12.5 -113.5t8 -79q6 -41 16.5 -107.5t21.5 -131t20.5 -112.5t13.5 -52l20 -35q-2 160 -4 313.5 t-2 312.5q0 88 1 172t5 172h107v-745h299v164h-176v584h118v163h-118v480h102q31 59 44 107t26 95q0 2 1 6.5t1 22.5h-541zM164 1391h123v-482h-121q0 100 16 212t39 212q-16 16 -36.5 24.5t-20.5 33.5z" />
<glyph unicode="&#xe7;" horiz-adv-x="473" d="M47 817q0 -111 11.5 -202t33 -172t51 -156.5t66.5 -157.5l12 -23q-37 -119 -78 -230.5t-65 -184.5l207 319l129 -200q-16 49 -42 121.5t-55 152.5q-45 135 -85.5 270.5t-65.5 282.5v260q0 29 1 59.5t5 73.5l7 49t11.5 74t13.5 75t13 50v25q0 16 -10 27t-24.5 20.5 t-29 18.5t-22.5 22h258q23 43 38 107.5t24 109.5l2 14h-297l-13 -37q-53 -193 -74.5 -381t-21.5 -387z" />
<glyph unicode="&#xe8;" horiz-adv-x="417" d="M27 1622q4 -37 18 -90t27 -86v-545h-29v-133h29v-768h301v164h-178v584h120v163h-120v480h102q31 59 44 107t28 95q0 2 1 6.5t1 22.5h-344zM129 1812l55 -131h92l-47 131h-100z" />
<glyph unicode="&#xe9;" horiz-adv-x="417" d="M27 1622q4 -37 18 -90t27 -86v-545h-29v-133h29v-768h301v164h-178v584h120v163h-120v480h102q31 59 44 107t28 95q0 2 1 6.5t1 22.5h-344zM139 1681h90l58 131h-103z" />
<glyph unicode="&#xea;" horiz-adv-x="417" d="M27 1622q4 -37 18 -90t27 -86v-545h-29v-133h29v-768h301v164h-178v584h120v163h-120v480h102q31 59 44 107t28 95q0 2 1 6.5t1 22.5h-344zM88 1681h94l27 91l22 -91h97l-47 131h-146z" />
<glyph unicode="&#xeb;" horiz-adv-x="417" d="M27 1622q4 -37 18 -90t27 -86v-545h-29v-133h29v-768h301v164h-178v584h120v163h-120v480h102q31 59 44 107t28 95q0 2 1 6.5t1 22.5h-344zM88 1681h94v131h-94v-131zM231 1681h97v131h-97v-131z" />
<glyph unicode="&#xec;" horiz-adv-x="296" d="M23 1622l1 -9t1 -14l7 -21t11 -31.5t12 -32t11 -21.5l67 -1239q0 -8 5 -48t11.5 -90t14.5 -98.5t14 -70.5q0 -6 5 -26.5t11.5 -44t13.5 -44t11 -27.5v1688l55 129h-251zM61 1812l56 -131h92l-47 131h-101z" />
<glyph unicode="&#xed;" horiz-adv-x="296" d="M23 1622l1 -9t1 -14l7 -21t11 -31.5t12 -32t11 -21.5l67 -1239q0 -8 5 -48t11.5 -90t14.5 -98.5t14 -70.5q0 -6 5 -26.5t11.5 -44t13.5 -44t11 -27.5v1688l55 129h-251zM80 1681h92l55 131h-100z" />
<glyph unicode="&#xee;" horiz-adv-x="296" d="M23 1622l1 -9t1 -14l7 -21t11 -31.5t12 -32t11 -21.5l67 -1239q0 -8 5 -48t11.5 -90t14.5 -98.5t14 -70.5q0 -6 5 -26.5t11.5 -44t13.5 -44t11 -27.5v1688l55 129h-251zM27 1681h96l24 91l25 -91h94l-47 131h-145z" />
<glyph unicode="&#xef;" horiz-adv-x="296" d="M23 1622l1 -9t1 -14l7 -21t11 -31.5t12 -32t11 -21.5l67 -1239q0 -8 5 -48t11.5 -90t14.5 -98.5t14 -70.5q0 -6 5 -26.5t11.5 -44t13.5 -44t11 -27.5v1688l55 129h-251zM27 1681h96v131h-96v-131zM172 1681h94v131h-94v-131z" />
<glyph unicode="&#xf0;" horiz-adv-x="489" d="M43 748h68q-16 -80 -18.5 -163t-2.5 -194v-35q10 -92 22.5 -175t41.5 -181h151l11 20q12 21 25 48.5t26.5 58.5t19.5 49q41 160 50 317.5t9 323.5q0 199 -22.5 387.5t-75.5 380.5l-12 37h-246l2 -14q2 -23 8 -52.5t14.5 -60.5t17.5 -59.5t20 -49.5h210q-8 -12 -22 -20 t-28.5 -17.5t-25 -20.5t-10.5 -25v-25q10 -35 16.5 -68.5t10.5 -66.5l-121 -187q-4 -12 -10 -23t-10 -22h-119v-163zM195 487v23q0 61 8 121.5t18 116.5h86v163h-37q18 49 32.5 76t16.5 23q10 -35 12.5 -69t4.5 -69q-2 -55 -5 -126.5t-11.5 -150.5t-20.5 -160t-33 -150 q-2 -10 -9 -27.5t-13 -28t-6 -12.5l-27 -2z" />
<glyph unicode="&#xf1;" horiz-adv-x="473" d="M23 1604q6 -43 12 -87t28 -85v-1432h117v1378q0 6 44 9.5t118 3.5q-8 -12 -22.5 -21.5t-27.5 -19t-23.5 -20.5t-10.5 -27v-25q6 -16 12 -52t11.5 -75t10.5 -73t9 -48q12 -293 12 -584q0 -315 -12 -636l16 12q2 0 5.5 13t6.5 31.5t6 39t7 33.5q35 223 59.5 439t24.5 439 q0 199 -21.5 387.5t-74.5 380.5l-13 37h-294v-18zM53 1681h94l23 80l27 -80h137l45 131h-94l-25 -79l-24 79h-136z" />
<glyph unicode="&#xf2;" horiz-adv-x="528" d="M47 817q0 -113 11.5 -210t32 -186t50 -171t66.5 -164l53 -86l57 86q74 160 119 335t45 396q0 199 -22.5 387.5t-75.5 380.5l-10 37h-217l-13 -37q-53 -193 -74.5 -381t-21.5 -387zM131 1391h266q-8 -12 -22.5 -20.5t-28.5 -18t-24.5 -20.5t-10.5 -25v-29q6 -16 12.5 -52 t12.5 -75t11 -73t9 -48q6 -66 8.5 -109.5t2.5 -95.5q0 -37 -1 -82t-4 -106q0 -23 -8 -74t-21.5 -114.5t-31.5 -132t-39 -128.5q-18 61 -35.5 130t-31 132.5t-21.5 113.5t-8 73q-2 61 -3 106t-1 82q0 51 2 95.5t8 109.5l7 49t11.5 74t13.5 75t13 50v29q0 14 -10 25 t-24.5 20.5t-29 17.5t-22.5 21zM182 1812l58 -131h92l-47 131h-103z" />
<glyph unicode="&#xf3;" horiz-adv-x="528" d="M47 817q0 -113 11.5 -210t32 -186t50 -171t66.5 -164l53 -86l57 86q74 160 119 335t45 396q0 199 -22.5 387.5t-75.5 380.5l-10 37h-217l-13 -37q-53 -193 -74.5 -381t-21.5 -387zM131 1391h266q-8 -12 -22.5 -20.5t-28.5 -18t-24.5 -20.5t-10.5 -25v-29q6 -16 12.5 -52 t12.5 -75t11 -73t9 -48q6 -66 8.5 -109.5t2.5 -95.5q0 -37 -1 -82t-4 -106q0 -23 -8 -74t-21.5 -114.5t-31.5 -132t-39 -128.5q-18 61 -35.5 130t-31 132.5t-21.5 113.5t-8 73q-2 61 -3 106t-1 82q0 51 2 95.5t8 109.5l7 49t11.5 74t13.5 75t13 50v29q0 14 -10 25 t-24.5 20.5t-29 17.5t-22.5 21zM195 1681h92l55 131h-100z" />
<glyph unicode="&#xf4;" horiz-adv-x="528" d="M47 817q0 -113 11.5 -210t32 -186t50 -171t66.5 -164l53 -86l57 86q74 160 119 335t45 396q0 199 -22.5 387.5t-75.5 380.5l-10 37h-217l-13 -37q-53 -193 -74.5 -381t-21.5 -387zM131 1391h266q-8 -12 -22.5 -20.5t-28.5 -18t-24.5 -20.5t-10.5 -25v-29q6 -16 12.5 -52 t12.5 -75t11 -73t9 -48q6 -66 8.5 -109.5t2.5 -95.5q0 -37 -1 -82t-4 -106q0 -23 -8 -74t-21.5 -114.5t-31.5 -132t-39 -128.5q-18 61 -35.5 130t-31 132.5t-21.5 113.5t-8 73q-2 61 -3 106t-1 82q0 51 2 95.5t8 109.5l7 49t11.5 74t13.5 75t13 50v29q0 14 -10 25 t-24.5 20.5t-29 17.5t-22.5 21zM143 1681h97l24 91l25 -91h94l-47 131h-146z" />
<glyph unicode="&#xf5;" horiz-adv-x="528" d="M47 817q0 -113 11.5 -210t32 -186t50 -171t66.5 -164l53 -86l57 86q74 160 119 335t45 396q0 199 -22.5 387.5t-75.5 380.5l-10 37h-217l-13 -37q-53 -193 -74.5 -381t-21.5 -387zM100 1681h97l22 80l27 -80h135l47 131h-94l-25 -79l-24 79h-138zM131 1391h266 q-8 -12 -22.5 -20.5t-28.5 -18t-24.5 -20.5t-10.5 -25v-29q6 -16 12.5 -52t12.5 -75t11 -73t9 -48q6 -66 8.5 -109.5t2.5 -95.5q0 -37 -1 -82t-4 -106q0 -23 -8 -74t-21.5 -114.5t-31.5 -132t-39 -128.5q-18 61 -35.5 130t-31 132.5t-21.5 113.5t-8 73q-2 61 -3 106t-1 82 q0 51 2 95.5t8 109.5l7 49t11.5 74t13.5 75t13 50v29q0 14 -10 25t-24.5 20.5t-29 17.5t-22.5 21z" />
<glyph unicode="&#xf6;" horiz-adv-x="528" d="M47 817q0 -113 11.5 -210t32 -186t50 -171t66.5 -164l53 -86l57 86q74 160 119 335t45 396q0 199 -22.5 387.5t-75.5 380.5l-10 37h-217l-13 -37q-53 -193 -74.5 -381t-21.5 -387zM131 1391h266q-8 -12 -22.5 -20.5t-28.5 -18t-24.5 -20.5t-10.5 -25v-29q6 -16 12.5 -52 t12.5 -75t11 -73t9 -48q6 -66 8.5 -109.5t2.5 -95.5q0 -37 -1 -82t-4 -106q0 -23 -8 -74t-21.5 -114.5t-31.5 -132t-39 -128.5q-18 61 -35.5 130t-31 132.5t-21.5 113.5t-8 73q-2 61 -3 106t-1 82q0 51 2 95.5t8 109.5l7 49t11.5 74t13.5 75t13 50v29q0 14 -10 25 t-24.5 20.5t-29 17.5t-22.5 21zM143 1681h97v131h-97v-131zM289 1681h94v131h-94v-131z" />
<glyph unicode="&#xf7;" horiz-adv-x="430" d="M43 748h344v163h-344v-163zM176 561h94v131h-94v-131zM176 969h94v133h-94v-133z" />
<glyph unicode="&#xf8;" horiz-adv-x="528" d="M47 817q0 -113 11.5 -210t32 -186t50 -171t66.5 -164l53 -86l57 86q74 160 119 335t45 396q0 199 -22.5 387.5t-75.5 380.5l-10 37h-217l-13 -37q-53 -193 -74.5 -381t-21.5 -387zM131 1391h266q-8 -12 -22.5 -20.5t-28.5 -18t-24.5 -20.5t-10.5 -25v-29 q8 -18 15.5 -66.5t13.5 -95.5l-176 -201q2 27 3 54.5t5 60.5l7 49t11.5 74t13.5 75t13 50v29q0 14 -10 25t-24.5 20.5t-29 17.5t-22.5 21zM166 637v61l199 230q2 -4 2 -27v-24v-52q0 -37 -1 -82t-4 -106q0 -23 -8 -74t-21.5 -114.5t-31.5 -132t-39 -128.5q-18 61 -35.5 130 t-31 132.5t-21.5 113.5t-8 73z" />
<glyph unicode="&#xf9;" d="M47 834q0 -172 9.5 -332t47.5 -326q6 -18 19.5 -49t28 -58.5t25.5 -48.5l11 -20h215v1622h-116v-1407l-31 2q0 2 -6 12.5t-14.5 27.5t-10.5 28q-10 31 -18 67.5t-14.5 75.5t-10.5 76t-4 65q-6 125 -10 242t-4 256v199l14 452q-2 -4 -9 -16t-15.5 -25.5t-15.5 -25 t-9 -17.5q-41 -205 -61.5 -397t-20.5 -403zM156 1812l57 -131h90l-45 131h-102z" />
<glyph unicode="&#xfa;" d="M47 834q0 -172 9.5 -332t47.5 -326q6 -18 19.5 -49t28 -58.5t25.5 -48.5l11 -20h215v1622h-116v-1407l-31 2q0 2 -6 12.5t-14.5 27.5t-10.5 28q-10 31 -18 67.5t-14.5 75.5t-10.5 76t-4 65q-6 125 -10 242t-4 256v199l12 415h86l57 131h-100l-41 -94q-2 -4 -9 -16 t-15.5 -25.5t-15.5 -25t-9 -17.5q-41 -205 -61.5 -397.5t-20.5 -402.5z" />
<glyph unicode="&#xfb;" d="M47 834q0 -172 9.5 -332t47.5 -326q6 -18 19.5 -49t28 -58.5t25.5 -48.5l11 -20h215v1622h-116v-1407l-31 2q0 2 -6 12.5t-14.5 27.5t-10.5 28q-10 31 -18 67.5t-14.5 75.5t-10.5 76t-4 65q-6 125 -10 242t-4 256v199l12 415h39l25 91l22 -91h96l-47 131h-145l-47 -131 h35q-20 -33 -25 -47q-41 -205 -61.5 -397.5t-20.5 -402.5z" />
<glyph unicode="&#xfc;" d="M47 834q0 -172 9.5 -332t47.5 -326q6 -18 19.5 -49t28 -58.5t25.5 -48.5l11 -20h215v1622h-116v-1407l-31 2q0 2 -6 12.5t-14.5 27.5t-10.5 28q-10 31 -18 67.5t-14.5 75.5t-10.5 76t-4 65q-6 125 -10 242t-4 256v199l12 415h49v131h-94v-131h23q-20 -33 -25 -47 q-41 -205 -61.5 -397.5t-20.5 -402.5zM274 1681h97v131h-97v-131z" />
<glyph unicode="&#xfd;" horiz-adv-x="456" d="M27 1622l4 -35q2 -8 7 -28.5t10 -44t10 -43t10 -25.5l96 -615v-1222q4 8 11 27.5t13.5 43t11.5 43t5 27.5q6 25 14 72t15.5 96t12.5 90t5 51l47 795l88 592l37 141l4 35h-145l-56 -358l-53 358h-147zM172 1681h90l57 131h-100z" />
<glyph unicode="&#xfe;" d="M23 1849l2 -37q2 -8 7 -28.5t11 -44t11 -43t9 -25.5l-2 -1134l27 -478q0 -10 5 -51t12.5 -90t15.5 -96t14 -72q0 -8 5 -27.5t11.5 -43t13.5 -43t11 -27.5v702l92 189q6 12 11.5 22t11.5 21q33 66 55.5 115t35.5 101t19.5 119.5t6.5 172.5q0 88 -23 165.5t-47 155.5 l-31 86h-123v391h-161zM176 481v729q0 8 43 11.5t117 3.5q-8 -12 -20.5 -21.5t-23.5 -18.5t-19.5 -20.5t-8.5 -25.5v-27q6 -16 11.5 -47t8.5 -62.5t6 -61.5t5 -46v-88q0 -37 -10.5 -74t-26.5 -76t-37.5 -82t-44.5 -94z" />
<glyph unicode="&#xff;" horiz-adv-x="456" d="M27 1622l4 -35q2 -8 7 -28.5t10 -44t10 -43t10 -25.5l96 -615v-1222q4 8 11 27.5t13.5 43t11.5 43t5 27.5q6 25 14 72t15.5 96t12.5 90t5 51l47 795l88 592l37 141l4 35h-145l-56 -358l-53 358h-147zM106 1681h97v131h-97v-131zM252 1681h94v131h-94v-131z" />
<glyph unicode="&#x152;" horiz-adv-x="735" d="M43 817q0 -111 11.5 -202t33 -172t51 -156.5t66.5 -157.5l207 -319q-18 49 -44 120.5t-53.5 152.5t-55.5 166t-49.5 160.5t-34.5 136t-13 91.5v260q0 29 1 59.5t5 73.5l7 49t11.5 74t13.5 75t13 50v25q0 16 -10 27t-24.5 20.5t-29 18.5t-22.5 22h266v-490h-28v-133h28 v-768h299v164h-176v584h121v163h-121v480h102q31 59 44.5 107t25.5 95q0 2 1 6.5t1 22.5h-538l-13 -37q-53 -193 -74.5 -381t-21.5 -387z" />
<glyph unicode="&#x153;" horiz-adv-x="735" d="M43 817q0 -111 11.5 -202t33 -172t51 -156.5t66.5 -157.5l207 -319q-18 49 -44 120.5t-53.5 152.5t-55.5 166t-49.5 160.5t-34.5 136t-13 91.5v260q0 29 1 59.5t5 73.5l7 49t11.5 74t13.5 75t13 50v25q0 16 -10 27t-24.5 20.5t-29 18.5t-22.5 22h266v-490h-28v-133h28 v-768h299v164h-176v584h121v163h-121v480h102q31 59 44.5 107t25.5 95q0 2 1 6.5t1 22.5h-538l-13 -37q-53 -193 -74.5 -381t-21.5 -387z" />
<glyph unicode="&#x178;" horiz-adv-x="456" d="M27 1622l4 -35q2 -8 7 -28.5t10 -44t10 -43t10 -25.5l96 -615v-1222q4 8 11 27.5t13.5 43t11.5 43t5 27.5q6 25 14 72t15.5 96t12.5 90t5 51l47 795l88 592l37 141l4 35h-145l-56 -358l-53 358h-147zM106 1681h97v131h-97v-131zM252 1681h94v131h-94v-131z" />
<glyph unicode="&#x2c6;" horiz-adv-x="294" d="M27 1489h96l24 90l25 -90h94l-47 131h-145z" />
<glyph unicode="&#x2dc;" horiz-adv-x="380" d="M27 1493h96l20 80l29 -80h135l47 131h-96l-22 -82l-25 82h-137z" />
<glyph unicode="&#x2000;" horiz-adv-x="924" />
<glyph unicode="&#x2001;" horiz-adv-x="1849" />
<glyph unicode="&#x2002;" horiz-adv-x="924" />
<glyph unicode="&#x2003;" horiz-adv-x="1849" />
<glyph unicode="&#x2004;" horiz-adv-x="616" />
<glyph unicode="&#x2005;" horiz-adv-x="462" />
<glyph unicode="&#x2006;" horiz-adv-x="308" />
<glyph unicode="&#x2007;" horiz-adv-x="308" />
<glyph unicode="&#x2008;" horiz-adv-x="231" />
<glyph unicode="&#x2009;" horiz-adv-x="369" />
<glyph unicode="&#x200a;" horiz-adv-x="102" />
<glyph unicode="&#x2010;" horiz-adv-x="284" d="M47 748h191v163h-191v-163z" />
<glyph unicode="&#x2011;" horiz-adv-x="284" d="M47 748h191v163h-191v-163z" />
<glyph unicode="&#x2012;" horiz-adv-x="284" d="M47 748h191v163h-191v-163z" />
<glyph unicode="&#x2013;" horiz-adv-x="284" d="M47 748h191v163h-191v-163z" />
<glyph unicode="&#x2014;" horiz-adv-x="430" d="M43 748h344v163h-344v-163z" />
<glyph unicode="&#x2018;" horiz-adv-x="208" d="M41 1266v164q6 51 24.5 98t38.5 90q23 -47 39.5 -94t20.5 -94v-164h-123z" />
<glyph unicode="&#x2019;" horiz-adv-x="208" d="M43 1458v162h123v-162q-6 -51 -24.5 -98t-41.5 -92q-20 47 -36.5 95t-20.5 95z" />
<glyph unicode="&#x201a;" horiz-adv-x="219" d="M47 -190q12 37 24.5 85t24.5 105h-47v164h123v-164h-2z" />
<glyph unicode="&#x201c;" horiz-adv-x="370" d="M43 1266v164q6 51 24.5 98t38.5 90q23 -47 39.5 -94t20.5 -94v-164h-123zM205 1266v164q6 51 24.5 98t38.5 90q20 -47 38 -94t22 -94v-164h-123z" />
<glyph unicode="&#x201d;" horiz-adv-x="370" d="M43 1458v162h123v-162q-6 -51 -24.5 -98t-41.5 -92q-20 47 -36.5 95t-20.5 95zM205 1458v162h123v-162q-6 -51 -24.5 -98t-41.5 -92q-20 47 -36.5 95t-20.5 95z" />
<glyph unicode="&#x201e;" horiz-adv-x="385" d="M43 -190q14 37 25.5 85t23.5 105h-47v164h123v-164h-2zM219 0v164h123v-164h-2l-121 -190q12 39 24.5 86t22.5 104h-47z" />
<glyph unicode="&#x2022;" horiz-adv-x="528" d="M47 817q0 -113 11.5 -210t32 -186t50 -171t66.5 -164l53 -86l57 86q74 160 119 335t45 396q0 199 -22.5 387.5t-75.5 380.5l-10 37h-217l-13 -37q-63 -190 -79.5 -379.5t-16.5 -388.5z" />
<glyph unicode="&#x2026;" horiz-adv-x="534" d="M43 0h123v164h-123v-164zM205 0h123v164h-123v-164zM371 0h121v164h-121v-164z" />
<glyph unicode="&#x202f;" horiz-adv-x="369" />
<glyph unicode="&#x2039;" horiz-adv-x="219" d="M43 758l133 -45v94l-92 27l92 22v96l-133 -47v-147z" />
<glyph unicode="&#x203a;" horiz-adv-x="219" d="M43 713v94l92 27l-92 22v96l133 -47v-147z" />
<glyph unicode="&#x205f;" horiz-adv-x="462" />
<glyph unicode="&#x20ac;" horiz-adv-x="610" d="M43 637h147q16 -147 55.5 -265t98.5 -243l207 -319q-18 47 -44 118.5t-53.5 153.5t-55 167t-49 160.5t-35 136t-13.5 91.5h193v162h-197v59h197v164h-189q0 2 1 3t1 5l7 49t11.5 74t13.5 75t13 50v25q0 16 -10 27t-24.5 20.5t-29 18.5t-22.5 22h260q23 43 37.5 107.5 t22.5 109.5l2 14h-295l-12 -37q-41 -141 -61.5 -281.5t-31.5 -281.5h-145v-164h139v-59h-139v-162z" />
<glyph unicode="&#x2122;" horiz-adv-x="419" d="M27 1651v26h110v-26h-43v-396h-26v396h-41zM162 1255v422h22l86 -358l82 358h25v-422h-25v320l-69 -320h-25l-74 322v-322h-22z" />
<glyph unicode="&#x25fc;" horiz-adv-x="1617" d="M0 0v1618h1618v-1618h-1618z" />
</font>
</defs>
</svg>
